<svg width="100" height="100" viewBox="0 0 90 90" fill="none" xmlns="http://www.w3.org/2000/svg">
<rect x="1.75" y="1.75" width="86.5" height="86.5" rx="43.25" stroke="black" stroke-width="3.5"/>
<path d="M59.4639 23.4533L49.4484 38.3333C48.7558 39.3467 50.0877 40.5733 51.0466 39.72L60.9023 31.1333C61.1687 30.92 61.5416 31.08 61.5416 31.4533V58.28C61.5416 58.6533 61.0622 58.8133 60.8491 58.5467L31.0155 22.8133C30.0566 21.64 28.6715 21 27.1265 21H26.061C23.2908 21 21 23.2933 21 26.12V63.88C21 66.7067 23.2908 69 26.1143 69C27.8724 69 29.5239 68.0933 30.4828 66.5467L40.4983 51.6667C41.1909 50.6533 39.859 49.4267 38.9001 50.28L29.0444 58.8133C28.778 59.0267 28.4051 58.8667 28.4051 58.4933V31.72C28.4051 31.3467 28.8846 31.1867 29.0977 31.4533L58.9312 67.1867C59.8901 68.36 61.3285 69 62.8202 69H63.8857C66.7092 69 69 66.7067 69 63.88V26.12C69 23.2933 66.7092 21 63.8857 21C62.0744 21 60.4229 21.9067 59.4639 23.4533Z" fill="black"/>
</svg>
