<svg
      width="18"
      height="17"
      viewBox="0 0 18 17"
      fill="none"
      xmlns="http://www.w3.org/2000/svg"
    >
      <path
        fill-rule="evenodd"
        clip-rule="evenodd"
        d="M14.154 5.21361C15.513 4.58637 15.8 3.96171 15.8 3.69231C15.8 3.42291 15.513 2.79825 14.154 2.171C12.8969 1.59081 11.0759 1.2 9 1.2C6.9241 1.2 5.10311 1.59081 3.84602 2.171C2.48699 2.79825 2.2 3.42291 2.2 3.69231C2.2 3.96171 2.48699 4.58637 3.84602 5.21361C5.10311 5.79381 6.9241 6.18462 9 6.18462C11.0759 6.18462 12.8969 5.79381 14.154 5.21361ZM9 7.38462C13.4183 7.38462 17 5.73151 17 3.69231C17 1.6531 13.4183 0 9 0C4.58172 0 1 1.6531 1 3.69231C1 5.73151 4.58172 7.38462 9 7.38462Z"
        fill="currentColor"
      />
      <path
        fill-rule="evenodd"
        clip-rule="evenodd"
        d="M1.82041 5.67748C2.08349 5.87896 2.13344 6.25556 1.93197 6.51865C1.70052 6.82087 1.60039 7.11018 1.60039 7.38461C1.60039 8.02911 2.1916 8.80298 3.59497 9.45069C4.94737 10.0749 6.85787 10.4769 9.00039 10.4769C11.1429 10.4769 13.0534 10.0749 14.4058 9.45069C15.8092 8.80298 16.4004 8.02911 16.4004 7.38461C16.4004 7.11018 16.3003 6.82088 16.0688 6.51865C15.8673 6.25556 15.9173 5.87896 16.1804 5.67748C16.4435 5.47601 16.8201 5.52596 17.0215 5.78904C17.3797 6.25673 17.6004 6.79594 17.6004 7.38461C17.6004 8.77932 16.4007 9.8516 14.9087 10.5402C13.3657 11.2524 11.2762 11.6769 9.00039 11.6769C6.72463 11.6769 4.63513 11.2524 3.0921 10.5402C1.60004 9.8516 0.400391 8.77932 0.400391 7.38461C0.400391 6.79594 0.621086 6.25673 0.979244 5.78904C1.18072 5.52596 1.55732 5.47601 1.82041 5.67748Z"
        fill="currentColor"
      />
      <path
        fill-rule="evenodd"
        clip-rule="evenodd"
        d="M1.82041 10.6006C2.08349 10.802 2.13344 11.1786 1.93197 11.4417C1.70052 11.7439 1.60039 12.0333 1.60039 12.3077C1.60039 12.9522 2.1916 13.7261 3.59497 14.3738C4.94737 14.998 6.85787 15.4 9.00039 15.4C11.1429 15.4 13.0534 14.998 14.4058 14.3738C15.8092 13.7261 16.4004 12.9522 16.4004 12.3077C16.4004 12.0333 16.3003 11.7439 16.0688 11.4417C15.8673 11.1786 15.9173 10.802 16.1804 10.6006C16.4435 10.3991 16.8201 10.449 17.0215 10.7121C17.3797 11.1798 17.6004 11.719 17.6004 12.3077C17.6004 13.7024 16.4007 14.7747 14.9087 15.4633C13.3657 16.1755 11.2762 16.6 9.00039 16.6C6.72463 16.6 4.63513 16.1755 3.0921 15.4633C1.60004 14.7747 0.400391 13.7024 0.400391 12.3077C0.400391 11.719 0.621086 11.1798 0.979244 10.7121C1.18072 10.449 1.55732 10.3991 1.82041 10.6006Z"
        fill="currentColor"
      />
    </svg>