<svg
      width="23"
      height="23"
      viewBox="0 0 23 23"
      fill="none"
      xmlns="http://www.w3.org/2000/svg"
    >
      <path
        d="M19.822 12.1482C19.8207 12.147 19.8196 12.1456 19.8186 12.1442L18.4 11.0413V4.6C18.4 4.1331 18.4744 3.75208 18.2084 3.40209C17.8969 2.87442 17.1414 2.87612 16.6762 2.875H8.05005L4.59946 6.15728V11.0413L3.18151 12.1442C3.18038 12.1453 3.17865 12.1471 3.17751 12.1482C2.64332 12.5697 2.30005 13.2229 2.30005 13.9554V19.7417C2.30005 20.3765 2.81526 20.8917 3.45005 20.8917H19.55C20.1848 20.8917 20.7 20.3765 20.7 19.7417V13.9555C20.7 13.2229 20.3562 12.5697 19.822 12.1482ZM5.75005 10.8861V6.75625L8.40884 4.21666H16.675C16.993 4.21666 17.25 4.47485 17.25 4.79224V12.2667H15.525C15.2071 12.2667 14.5656 12.5248 14.565 12.8422V14.95C14.565 15.268 14.3091 15.525 13.9911 15.525H9.00783C8.68985 15.525 8.43341 15.268 8.43341 14.95V12.8422C8.43341 12.5248 7.79247 12.2667 7.47507 12.2667H5.75005V10.8861ZM19.55 19.1667C19.55 19.4846 19.293 19.7417 18.9739 19.7417H4.02505C3.70765 19.7417 3.45005 19.4846 3.45005 19.1667V13.9917C3.45005 13.6743 3.70765 13.4172 4.02505 13.4172H7.47505V15.525C7.47505 16.161 7.99026 16.6761 8.62505 16.6761H14.375C15.0098 16.6761 15.525 16.1604 15.525 15.525V13.4172H18.9739C19.293 13.4172 19.55 13.6737 19.55 13.9917V19.1667Z"
        fill="currentColor"
      />
    </svg>