<svg
      width="16"
      height="16"
      viewBox="0 0 16 16"
      fill="none"
      xmlns="http://www.w3.org/2000/svg"
    >
      <path
        d="M12.498 7.58513H12.528C12.5312 7.59387 12.5319 7.60335 12.53 7.61246C12.4367 8.09113 12.348 8.60046 12.2647 9.0798C12.2153 9.36446 12.1673 9.6378 12.122 9.88847C11.9907 10.6071 11.8687 11.1771 11.7353 11.5785C11.6373 11.8711 11.5373 12.0798 11.4253 12.2085C11.3936 12.2478 11.3541 12.2803 11.3093 12.3038C11.2466 12.3312 11.1784 12.3439 11.11 12.3411L8.366 12.3371H8.36533L5.33467 12.3338H5.33333L5.332 12.3318H5.33133C5.32964 12.3301 5.32828 12.328 5.32733 12.3258V12.3245L5.32667 12.3205C5.31933 11.5725 5.30733 10.8598 5.296 10.1578C5.282 9.3178 5.268 8.49513 5.26267 7.64913C6.60933 7.0158 7.54733 5.60913 7.68933 4.1358C7.77133 3.7938 7.90467 3.62446 7.99667 3.54313C8.098 3.4538 8.21667 3.4098 8.34333 3.40446C8.63733 3.39246 8.852 3.56846 8.91 3.77246C9.05333 4.27446 9.15133 5.2978 9.11467 6.19713L9.05733 7.58513H10.4467C10.744 7.58513 10.988 7.58447 11.2153 7.58313C11.626 7.5818 11.982 7.5798 12.498 7.58513V7.58513ZM8.362 13.6705L11.1153 13.6745C12.3333 13.6665 12.7773 12.6665 13 11.9998C13.23 11.3091 13.4013 10.3251 13.5827 9.28313C13.664 8.81647 13.7473 8.33713 13.8387 7.8678C13.899 7.55923 13.8524 7.23931 13.7064 6.9608C13.5605 6.6823 13.324 6.46185 13.036 6.3358C12.8667 6.27985 12.6896 6.25149 12.5113 6.2518C12.2353 6.24913 12.0013 6.24847 11.7813 6.24847L11.198 6.2498C10.9713 6.25113 10.7313 6.2518 10.4467 6.2518C10.4587 5.95846 10.4587 5.64846 10.4467 5.33846C10.4193 4.6118 10.33 3.88846 10.1927 3.40713C9.69667 1.66646 6.88533 1.41246 6.36867 3.9358C6.27667 5.23913 5.29 6.42246 4.104 6.63113C3.96067 6.65646 3.92733 6.71113 3.92733 6.85646C3.92667 7.99446 3.94467 9.0898 3.96267 10.1998C3.97467 10.8998 3.986 11.6065 3.99333 12.3331C4 13.0698 4.59733 13.6665 5.33333 13.6665L8.36 13.6705H8.362V13.6705ZM3.33333 7.66646C3.33335 7.57891 3.31611 7.49221 3.28262 7.41131C3.24912 7.33042 3.20001 7.25691 3.13811 7.19499C3.0762 7.13308 3.0027 7.08396 2.92181 7.05045C2.84092 7.01694 2.75422 6.9997 2.66667 6.9997C2.57911 6.9997 2.49241 7.01694 2.41152 7.05045C2.33063 7.08396 2.25713 7.13308 2.19523 7.19499C2.13332 7.25691 2.08421 7.33042 2.05072 7.41131C2.01722 7.49221 1.99999 7.57891 2 7.66646V12.9998C1.99999 13.0874 2.01722 13.1741 2.05072 13.255C2.08421 13.3358 2.13332 13.4094 2.19523 13.4713C2.25713 13.5332 2.33063 13.5823 2.41152 13.6158C2.49241 13.6493 2.57911 13.6666 2.66667 13.6666C2.75422 13.6666 2.84092 13.6493 2.92181 13.6158C3.0027 13.5823 3.0762 13.5332 3.13811 13.4713C3.20001 13.4094 3.24912 13.3358 3.28262 13.255C3.31611 13.1741 3.33335 13.0874 3.33333 12.9998V7.66646V7.66646ZM5.26 6.85713V6.85646V6.85713Z"
        fill="url(#paint0_linear_17511_156)"
      />
      <defs>
        <linearGradient
          id="paint0_linear_17511_156"
          x1="7.93218"
          y1="2.0708"
          x2="7.93218"
          y2="13.6745"
          gradientUnits="userSpaceOnUse"
        >
          <stop />
          <stop offset="1" stop-opacity="0.49" />
        </linearGradient>
      </defs>
    </svg>