<svg width="18" height="16" viewBox="0 0 18 16" fill="none" xmlns="http://www.w3.org/2000/svg">
<g id="Group 24956">
<path id="Subtract" fill-rule="evenodd" clip-rule="evenodd" d="M7.10016 1.17187C7.86996 -0.161459 9.79446 -0.161458 10.5643 1.17188L17.3935 13.0004C18.1633 14.3338 17.201 16.0004 15.6614 16.0004H2.00298C0.463382 16.0004 -0.498867 14.3338 0.270933 13.0004L7.10016 1.17187ZM7.91793 6.40045C7.91793 5.8955 8.32727 5.48616 8.83221 5.48616C9.33716 5.48616 9.7465 5.8955 9.7465 6.40045V10.0576C9.7465 10.5625 9.33716 10.9719 8.83221 10.9719C8.32727 10.9719 7.91793 10.5625 7.91793 10.0576V6.40045ZM8.83221 11.8862C8.32727 11.8862 7.91793 12.2955 7.91793 12.8004C7.91793 13.3054 8.32727 13.7147 8.83221 13.7147C9.33716 13.7147 9.7465 13.3054 9.7465 12.8004C9.7465 12.2955 9.33716 11.8862 8.83221 11.8862Z" fill="#E7B24B"/>
</g>
</svg>
