<svg width="16" height="16" viewBox="0 0 16 16" fill="none" xmlns="http://www.w3.org/2000/svg">
<g id="Group 48096324">
<circle id="Ellipse 4090" cx="8" cy="8" r="8" fill="#FF6A8E"/>
<path id="Union" fill-rule="evenodd" clip-rule="evenodd" d="M5.29289 6.70711C4.90237 6.31658 4.90237 5.68342 5.29289 5.29289C5.68342 4.90237 6.31658 4.90237 6.70711 5.29289L8.21228 6.79807L9.71745 5.29289C10.108 4.90237 10.7411 4.90237 11.1317 5.29289C11.5222 5.68342 11.5222 6.31658 11.1317 6.70711L9.62649 8.21228L11.1315 9.71733C11.5221 10.1079 11.5221 10.741 11.1315 11.1315C10.741 11.5221 10.1079 11.5221 9.71733 11.1315L8.21228 9.62649L6.70723 11.1315C6.31671 11.5221 5.68354 11.5221 5.29302 11.1315C4.90249 10.741 4.90249 10.1079 5.29302 9.71733L6.79807 8.21228L5.29289 6.70711Z" fill="white"/>
</g>
</svg>
