<svg width="42" height="53" viewBox="0 0 42 53" fill="none" xmlns="http://www.w3.org/2000/svg">
<g id="Group 48096334">
<path id="Vector 3828" d="M20.5 2L20.5 17M20.5 17L27 10.7931M20.5 17L14 10.7931" stroke="#00C6A2" stroke-width="3" stroke-linecap="round"/>
<g id="Group 48096333">
<path id="Rectangle 6676" d="M2 29.5C2 26.1863 4.68629 23.5 8 23.5H8.5H33H34C37.3137 23.5 40 26.1863 40 29.5V45.5C40 48.8137 37.3137 51.5 34 51.5H8C4.68629 51.5 2 48.8137 2 45.5V29.5Z" stroke="#00C6A2" stroke-width="3" stroke-linecap="round"/>
<path id="Rectangle 6677" d="M40 33H29.5C27.0147 33 25 35.0147 25 37.5V37.5C25 39.9853 27.0147 42 29.5 42H40" stroke="#00C6A2" stroke-width="3" stroke-linecap="round"/>
</g>
</g>
</svg>
