<svg width="11" height="11" viewBox="0 0 11 11" xmlns="http://www.w3.org/2000/svg">
<g id="&#230;&#143;&#144;&#231;&#164;&#186;&#232;&#175;&#180;&#230;&#152;&#142; 1" clip-path="url(#clip0_8600_99)">
<path id="Vector" d="M5.5 11C2.46262 11 0 8.53738 0 5.5C0 2.46262 2.46262 0 5.5 0C8.53738 0 11 2.46262 11 5.5C11 8.53738 8.53738 11 5.5 11ZM5.5 10.0833C8.03137 10.0833 10.0833 8.03137 10.0833 5.5C10.0833 2.96863 8.03137 0.916667 5.5 0.916667C2.96863 0.916667 0.916667 2.96863 0.916667 5.5C0.916667 8.03137 2.96863 10.0833 5.5 10.0833ZM5.04167 5.04167C5.04167 4.92011 5.08996 4.80353 5.17591 4.71758C5.26186 4.63162 5.37844 4.58333 5.5 4.58333C5.62156 4.58333 5.73814 4.63162 5.82409 4.71758C5.91004 4.80353 5.95833 4.92011 5.95833 5.04167V8.25C5.95833 8.37156 5.91004 8.48814 5.82409 8.57409C5.73814 8.66004 5.62156 8.70833 5.5 8.70833C5.37844 8.70833 5.26186 8.66004 5.17591 8.57409C5.08996 8.48814 5.04167 8.37156 5.04167 8.25V5.04167ZM5.45417 3.575C5.28399 3.575 5.12078 3.5074 5.00044 3.38706C4.8801 3.26672 4.8125 3.10351 4.8125 2.93333C4.8125 2.76315 4.8801 2.59994 5.00044 2.47961C5.12078 2.35927 5.28399 2.29167 5.45417 2.29167C5.62435 2.29167 5.78756 2.35927 5.90789 2.47961C6.02823 2.59994 6.09583 2.76315 6.09583 2.93333C6.09583 3.10351 6.02823 3.26672 5.90789 3.38706C5.78756 3.5074 5.62435 3.575 5.45417 3.575Z" />
</g>
<defs>
<clipPath id="clip0_8600_99">
<rect width="11" height="11"/>
</clipPath>
</defs>
</svg>
