<svg
      width="101"
      height="26"
      viewBox="0 0 101 26"
      fill="none"
      xmlns="http://www.w3.org/2000/svg"
    >
      <path
        d="M13.5076 16.712H16.7976V18H11.9116V8.27H13.5076V16.712ZM25.2023 13.954C25.2023 14.2433 25.1836 14.5047 25.1463 14.738H19.2523C19.2989 15.354 19.5276 15.8487 19.9383 16.222C20.3489 16.5953 20.8529 16.782 21.4503 16.782C22.3089 16.782 22.9156 16.4227 23.2703 15.704H24.9923C24.7589 16.4133 24.3343 16.9967 23.7183 17.454C23.1116 17.902 22.3556 18.126 21.4503 18.126C20.7129 18.126 20.0503 17.9627 19.4623 17.636C18.8836 17.3 18.4263 16.8333 18.0903 16.236C17.7636 15.6293 17.6003 14.9293 17.6003 14.136C17.6003 13.3427 17.7589 12.6473 18.0763 12.05C18.4029 11.4433 18.8556 10.9767 19.4343 10.65C20.0223 10.3233 20.6943 10.16 21.4503 10.16C22.1783 10.16 22.8269 10.3187 23.3963 10.636C23.9656 10.9533 24.4089 11.4013 24.7263 11.98C25.0436 12.5493 25.2023 13.2073 25.2023 13.954ZM23.5363 13.45C23.5269 12.862 23.3169 12.3907 22.9063 12.036C22.4956 11.6813 21.9869 11.504 21.3803 11.504C20.8296 11.504 20.3583 11.6813 19.9663 12.036C19.5743 12.3813 19.3409 12.8527 19.2663 13.45H23.5363ZM26.2409 14.108C26.2409 13.3333 26.3996 12.6473 26.7169 12.05C27.0436 11.4527 27.4822 10.9907 28.0329 10.664C28.5929 10.328 29.2089 10.16 29.8809 10.16C30.4876 10.16 31.0149 10.2813 31.4629 10.524C31.9202 10.7573 32.2842 11.0513 32.5549 11.406V10.286H34.1649V18H32.5549V16.852C32.2842 17.216 31.9156 17.5193 31.4489 17.762C30.9822 18.0047 30.4502 18.126 29.8529 18.126C29.1902 18.126 28.5836 17.958 28.0329 17.622C27.4822 17.2767 27.0436 16.8007 26.7169 16.194C26.3996 15.578 26.2409 14.8827 26.2409 14.108ZM32.5549 14.136C32.5549 13.604 32.4429 13.142 32.2189 12.75C32.0042 12.358 31.7196 12.0593 31.3649 11.854C31.0102 11.6487 30.6276 11.546 30.2169 11.546C29.8062 11.546 29.4236 11.6487 29.0689 11.854C28.7142 12.05 28.4249 12.344 28.2009 12.736C27.9862 13.1187 27.8789 13.576 27.8789 14.108C27.8789 14.64 27.9862 15.1067 28.2009 15.508C28.4249 15.9093 28.7142 16.2173 29.0689 16.432C29.4329 16.6373 29.8156 16.74 30.2169 16.74C30.6276 16.74 31.0102 16.6373 31.3649 16.432C31.7196 16.2267 32.0042 15.928 32.2189 15.536C32.4429 15.1347 32.5549 14.668 32.5549 14.136ZM37.8572 11.406C38.0905 11.014 38.3985 10.7107 38.7812 10.496C39.1732 10.272 39.6352 10.16 40.1672 10.16V11.812H39.7612C39.1358 11.812 38.6598 11.9707 38.3332 12.288C38.0158 12.6053 37.8572 13.156 37.8572 13.94V18H36.2612V10.286H37.8572V11.406ZM45.5262 10.16C46.1329 10.16 46.6742 10.286 47.1502 10.538C47.6356 10.79 48.0136 11.1633 48.2842 11.658C48.5549 12.1527 48.6902 12.75 48.6902 13.45V18H47.1082V13.688C47.1082 12.9973 46.9356 12.47 46.5902 12.106C46.2449 11.7327 45.7736 11.546 45.1762 11.546C44.5789 11.546 44.1029 11.7327 43.7482 12.106C43.4029 12.47 43.2302 12.9973 43.2302 13.688V18H41.6342V10.286H43.2302V11.168C43.4916 10.8507 43.8229 10.6033 44.2242 10.426C44.6349 10.2487 45.0689 10.16 45.5262 10.16ZM63.7007 10.16C64.3074 10.16 64.8487 10.286 65.3247 10.538C65.8101 10.79 66.1881 11.1633 66.4587 11.658C66.7387 12.1527 66.8787 12.75 66.8787 13.45V18H65.2967V13.688C65.2967 12.9973 65.1241 12.47 64.7787 12.106C64.4334 11.7327 63.9621 11.546 63.3647 11.546C62.7674 11.546 62.2914 11.7327 61.9367 12.106C61.5914 12.47 61.4187 12.9973 61.4187 13.688V18H59.8367V13.688C59.8367 12.9973 59.6641 12.47 59.3187 12.106C58.9734 11.7327 58.5021 11.546 57.9047 11.546C57.3074 11.546 56.8314 11.7327 56.4767 12.106C56.1314 12.47 55.9587 12.9973 55.9587 13.688V18H54.3627V10.286H55.9587V11.168C56.2201 10.8507 56.5514 10.6033 56.9527 10.426C57.3541 10.2487 57.7834 10.16 58.2407 10.16C58.8567 10.16 59.4074 10.2907 59.8927 10.552C60.3781 10.8133 60.7514 11.1913 61.0127 11.686C61.2461 11.2193 61.6101 10.8507 62.1047 10.58C62.5994 10.3 63.1314 10.16 63.7007 10.16ZM72.2556 18.126C71.5276 18.126 70.8696 17.9627 70.2816 17.636C69.6936 17.3 69.2316 16.8333 68.8956 16.236C68.5596 15.6293 68.3916 14.9293 68.3916 14.136C68.3916 13.352 68.5643 12.6567 68.9096 12.05C69.255 11.4433 69.7263 10.9767 70.3236 10.65C70.921 10.3233 71.5883 10.16 72.3256 10.16C73.063 10.16 73.7303 10.3233 74.3276 10.65C74.925 10.9767 75.3963 11.4433 75.7416 12.05C76.087 12.6567 76.2596 13.352 76.2596 14.136C76.2596 14.92 76.0823 15.6153 75.7276 16.222C75.373 16.8287 74.8876 17.3 74.2716 17.636C73.665 17.9627 72.993 18.126 72.2556 18.126ZM72.2556 16.74C72.6663 16.74 73.049 16.642 73.4036 16.446C73.7676 16.25 74.0616 15.956 74.2856 15.564C74.5096 15.172 74.6216 14.696 74.6216 14.136C74.6216 13.576 74.5143 13.1047 74.2996 12.722C74.085 12.33 73.8003 12.036 73.4456 11.84C73.091 11.644 72.7083 11.546 72.2976 11.546C71.887 11.546 71.5043 11.644 71.1496 11.84C70.8043 12.036 70.529 12.33 70.3236 12.722C70.1183 13.1047 70.0156 13.576 70.0156 14.136C70.0156 14.9667 70.2256 15.6107 70.6456 16.068C71.075 16.516 71.6116 16.74 72.2556 16.74ZM79.4334 11.406C79.6667 11.014 79.9747 10.7107 80.3574 10.496C80.7494 10.272 81.2114 10.16 81.7434 10.16V11.812H81.3374C80.712 11.812 80.236 11.9707 79.9094 12.288C79.592 12.6053 79.4334 13.156 79.4334 13.94V18H77.8374V10.286H79.4334V11.406ZM90.2804 13.954C90.2804 14.2433 90.2617 14.5047 90.2244 14.738H84.3304C84.3771 15.354 84.6057 15.8487 85.0164 16.222C85.4271 16.5953 85.9311 16.782 86.5284 16.782C87.3871 16.782 87.9937 16.4227 88.3484 15.704H90.0704C89.8371 16.4133 89.4124 16.9967 88.7964 17.454C88.1897 17.902 87.4337 18.126 86.5284 18.126C85.7911 18.126 85.1284 17.9627 84.5404 17.636C83.9617 17.3 83.5044 16.8333 83.1684 16.236C82.8417 15.6293 82.6784 14.9293 82.6784 14.136C82.6784 13.3427 82.8371 12.6473 83.1544 12.05C83.4811 11.4433 83.9337 10.9767 84.5124 10.65C85.1004 10.3233 85.7724 10.16 86.5284 10.16C87.2564 10.16 87.9051 10.3187 88.4744 10.636C89.0437 10.9533 89.4871 11.4013 89.8044 11.98C90.1217 12.5493 90.2804 13.2073 90.2804 13.954ZM88.6144 13.45C88.6051 12.862 88.3951 12.3907 87.9844 12.036C87.5737 11.6813 87.0651 11.504 86.4584 11.504C85.9077 11.504 85.4364 11.6813 85.0444 12.036C84.6524 12.3813 84.4191 12.8527 84.3444 13.45H88.6144Z"
        fill="white"
      />
      <rect
        x="0.5"
        y="0.785156"
        width="100"
        height="24"
        rx="3.5"
        stroke="url(#paint0_linear_10360_477)"
      />
      <defs>
        <linearGradient
          id="paint0_linear_10360_477"
          x1="-5.20618"
          y1="0.285156"
          x2="101"
          y2="0.285157"
          gradientUnits="userSpaceOnUse"
        >
          <stop stop-color="#00C6A2" />
          <stop offset="1" stop-color="#8F9BFF" />
        </linearGradient>
      </defs>
    </svg>