<svg
      width="83"
      height="21"
      viewBox="0 0 83 21"
      fill="none"
      xmlns="http://www.w3.org/2000/svg"
    >
      <path
        d="M9.50823 12.896H12.3282V14H8.14023V5.66H9.50823V12.896ZM19.5323 10.532C19.5323 10.78 19.5163 11.004 19.4843 11.204H14.4323C14.4723 11.732 14.6683 12.156 15.0203 12.476C15.3723 12.796 15.8043 12.956 16.3163 12.956C17.0523 12.956 17.5723 12.648 17.8763 12.032H19.3523C19.1523 12.64 18.7883 13.14 18.2603 13.532C17.7403 13.916 17.0923 14.108 16.3163 14.108C15.6843 14.108 15.1163 13.968 14.6123 13.688C14.1163 13.4 13.7243 13 13.4363 12.488C13.1563 11.968 13.0163 11.368 13.0163 10.688C13.0163 10.008 13.1523 9.412 13.4243 8.9C13.7043 8.38 14.0923 7.98 14.5883 7.7C15.0923 7.42 15.6683 7.28 16.3163 7.28C16.9403 7.28 17.4963 7.416 17.9843 7.688C18.4723 7.96 18.8523 8.344 19.1243 8.84C19.3963 9.328 19.5323 9.892 19.5323 10.532ZM18.1043 10.1C18.0963 9.596 17.9163 9.192 17.5643 8.888C17.2123 8.584 16.7763 8.432 16.2563 8.432C15.7843 8.432 15.3803 8.584 15.0443 8.888C14.7083 9.184 14.5083 9.588 14.4443 10.1H18.1043ZM20.4225 10.664C20.4225 10 20.5585 9.412 20.8305 8.9C21.1105 8.388 21.4865 7.992 21.9585 7.712C22.4385 7.424 22.9665 7.28 23.5425 7.28C24.0625 7.28 24.5145 7.384 24.8985 7.592C25.2905 7.792 25.6025 8.044 25.8345 8.348V7.388H27.2145V14H25.8345V13.016C25.6025 13.328 25.2865 13.588 24.8865 13.796C24.4865 14.004 24.0305 14.108 23.5185 14.108C22.9505 14.108 22.4305 13.964 21.9585 13.676C21.4865 13.38 21.1105 12.972 20.8305 12.452C20.5585 11.924 20.4225 11.328 20.4225 10.664ZM25.8345 10.688C25.8345 10.232 25.7385 9.836 25.5465 9.5C25.3625 9.164 25.1185 8.908 24.8145 8.732C24.5105 8.556 24.1825 8.468 23.8305 8.468C23.4785 8.468 23.1505 8.556 22.8465 8.732C22.5425 8.9 22.2945 9.152 22.1025 9.488C21.9185 9.816 21.8265 10.208 21.8265 10.664C21.8265 11.12 21.9185 11.52 22.1025 11.864C22.2945 12.208 22.5425 12.472 22.8465 12.656C23.1585 12.832 23.4865 12.92 23.8305 12.92C24.1825 12.92 24.5105 12.832 24.8145 12.656C25.1185 12.48 25.3625 12.224 25.5465 11.888C25.7385 11.544 25.8345 11.144 25.8345 10.688ZM30.3793 8.348C30.5793 8.012 30.8433 7.752 31.1713 7.568C31.5073 7.376 31.9033 7.28 32.3593 7.28V8.696H32.0113C31.4753 8.696 31.0673 8.832 30.7873 9.104C30.5153 9.376 30.3793 9.848 30.3793 10.52V14H29.0113V7.388H30.3793V8.348ZM36.9528 7.28C37.4728 7.28 37.9368 7.388 38.3448 7.604C38.7608 7.82 39.0848 8.14 39.3168 8.564C39.5488 8.988 39.6648 9.5 39.6648 10.1V14H38.3088V10.304C38.3088 9.712 38.1608 9.26 37.8648 8.948C37.5688 8.628 37.1648 8.468 36.6528 8.468C36.1408 8.468 35.7328 8.628 35.4288 8.948C35.1328 9.26 34.9848 9.712 34.9848 10.304V14H33.6168V7.388H34.9848V8.144C35.2088 7.872 35.4928 7.66 35.8368 7.508C36.1888 7.356 36.5608 7.28 36.9528 7.28ZM52.531 7.28C53.051 7.28 53.515 7.388 53.923 7.604C54.339 7.82 54.663 8.14 54.895 8.564C55.135 8.988 55.255 9.5 55.255 10.1V14H53.899V10.304C53.899 9.712 53.751 9.26 53.455 8.948C53.159 8.628 52.755 8.468 52.243 8.468C51.731 8.468 51.323 8.628 51.019 8.948C50.723 9.26 50.575 9.712 50.575 10.304V14H49.219V10.304C49.219 9.712 49.071 9.26 48.775 8.948C48.479 8.628 48.075 8.468 47.563 8.468C47.051 8.468 46.643 8.628 46.339 8.948C46.043 9.26 45.895 9.712 45.895 10.304V14H44.527V7.388H45.895V8.144C46.119 7.872 46.403 7.66 46.747 7.508C47.091 7.356 47.459 7.28 47.851 7.28C48.379 7.28 48.851 7.392 49.267 7.616C49.683 7.84 50.003 8.164 50.227 8.588C50.427 8.188 50.739 7.872 51.163 7.64C51.587 7.4 52.043 7.28 52.531 7.28ZM59.8637 14.108C59.2397 14.108 58.6757 13.968 58.1717 13.688C57.6677 13.4 57.2717 13 56.9837 12.488C56.6957 11.968 56.5517 11.368 56.5517 10.688C56.5517 10.016 56.6997 9.42 56.9957 8.9C57.2917 8.38 57.6957 7.98 58.2077 7.7C58.7197 7.42 59.2917 7.28 59.9237 7.28C60.5557 7.28 61.1277 7.42 61.6397 7.7C62.1517 7.98 62.5557 8.38 62.8517 8.9C63.1477 9.42 63.2957 10.016 63.2957 10.688C63.2957 11.36 63.1437 11.956 62.8397 12.476C62.5357 12.996 62.1197 13.4 61.5917 13.688C61.0717 13.968 60.4957 14.108 59.8637 14.108ZM59.8637 12.92C60.2157 12.92 60.5437 12.836 60.8477 12.668C61.1597 12.5 61.4117 12.248 61.6037 11.912C61.7957 11.576 61.8917 11.168 61.8917 10.688C61.8917 10.208 61.7997 9.804 61.6157 9.476C61.4317 9.14 61.1877 8.888 60.8837 8.72C60.5797 8.552 60.2517 8.468 59.8997 8.468C59.5477 8.468 59.2197 8.552 58.9157 8.72C58.6197 8.888 58.3837 9.14 58.2077 9.476C58.0317 9.804 57.9437 10.208 57.9437 10.688C57.9437 11.4 58.1237 11.952 58.4837 12.344C58.8517 12.728 59.3117 12.92 59.8637 12.92ZM66.016 8.348C66.216 8.012 66.48 7.752 66.808 7.568C67.144 7.376 67.54 7.28 67.996 7.28V8.696H67.648C67.112 8.696 66.704 8.832 66.424 9.104C66.152 9.376 66.016 9.848 66.016 10.52V14H64.648V7.388H66.016V8.348ZM75.3135 10.532C75.3135 10.78 75.2975 11.004 75.2655 11.204H70.2135C70.2535 11.732 70.4495 12.156 70.8015 12.476C71.1535 12.796 71.5855 12.956 72.0975 12.956C72.8335 12.956 73.3535 12.648 73.6575 12.032H75.1335C74.9335 12.64 74.5695 13.14 74.0415 13.532C73.5215 13.916 72.8735 14.108 72.0975 14.108C71.4655 14.108 70.8975 13.968 70.3935 13.688C69.8975 13.4 69.5055 13 69.2175 12.488C68.9375 11.968 68.7975 11.368 68.7975 10.688C68.7975 10.008 68.9335 9.412 69.2055 8.9C69.4855 8.38 69.8735 7.98 70.3695 7.7C70.8735 7.42 71.4495 7.28 72.0975 7.28C72.7215 7.28 73.2775 7.416 73.7655 7.688C74.2535 7.96 74.6335 8.344 74.9055 8.84C75.1775 9.328 75.3135 9.892 75.3135 10.532ZM73.8855 10.1C73.8775 9.596 73.6975 9.192 73.3455 8.888C72.9935 8.584 72.5575 8.432 72.0375 8.432C71.5655 8.432 71.1615 8.584 70.8255 8.888C70.4895 9.184 70.2895 9.588 70.2255 10.1H73.8855Z"
        fill="white"
      />
      <rect
        x="0.5"
        y="0.5"
        width="81.7382"
        height="19.4798"
        rx="3.5"
        stroke="url(#paint0_linear_10363_1574)"
      />
      <defs>
        <linearGradient
          id="paint0_linear_10363_1574"
          x1="-4.26485"
          y1="0"
          x2="82.7382"
          y2="9.29907e-07"
          gradientUnits="userSpaceOnUse"
        >
          <stop stop-color="#00C6A2" />
          <stop offset="1" stop-color="#8F9BFF" />
        </linearGradient>
      </defs>
    </svg>