<svg
      width="15"
      height="15"
      viewBox="0 0 15 15"
      fill="none"
      xmlns="http://www.w3.org/2000/svg"
    >
      <path
        fill-rule="evenodd"
        clip-rule="evenodd"
        d="M0 1.5C0 0.671573 0.671573 0 1.5 0H13.5C14.3284 0 15 0.671573 15 1.5C15 2.32843 14.3284 3 13.5 3H1.5C0.671573 3 0 2.32843 0 1.5ZM5 7.26904C5 6.44062 5.67157 5.76904 6.5 5.76904H13.5C14.3284 5.76904 15 6.44062 15 7.26904C15 8.09747 14.3284 8.76904 13.5 8.76904H6.5C5.67157 8.76904 5 8.09747 5 7.26904ZM1.5 11.5386C0.671573 11.5386 0 12.2101 0 13.0386C0 13.867 0.671573 14.5386 1.5 14.5386H13.5C14.3284 14.5386 15 13.867 15 13.0386C15 12.2101 14.3284 11.5386 13.5 11.5386H1.5Z"
        fill="#7E8A93"
      />
    </svg>