<svg
      width="15"
      height="12"
      viewBox="0 0 15 12"
      fill="none"
      xmlns="http://www.w3.org/2000/svg"
    >
      <path
        d="M9.54096 1.69374C9.95359 1.30332 10.6043 1.31919 10.9979 1.73183C11.3946 2.14446 11.3788 2.80149 10.9629 3.19508L3.58954 10.2035L1.76127 10.4415L2.51352 8.34028L9.54096 1.69374ZM12.0167 0.754207C11.0867 -0.217064 9.54413 -0.255153 8.56968 0.668507L1.42164 7.42931C1.34229 7.50549 1.2788 7.60071 1.24072 7.70546L0.0409104 11.0509C-0.0416158 11.2827 0.00282146 11.5398 0.155178 11.7334C0.310708 11.927 0.551939 12.0222 0.796343 11.9905L3.999 11.5715C4.14818 11.5525 4.28467 11.4858 4.39258 11.3842L11.9342 4.21714C12.915 3.28395 12.9531 1.73183 12.0167 0.754207ZM7.76664 10.5844C7.37623 10.5844 7.05882 10.9018 7.05882 11.2922C7.05882 11.6826 7.37623 12 7.76664 12H13.4165C13.8069 12 14.1243 11.6826 14.1243 11.2922C14.1243 10.9018 13.8069 10.5844 13.4165 10.5844H7.76664Z"
        fill="#7E8A93"
      />
    </svg>