<svg
      width="16"
      height="16"
      viewBox="0 0 16 16"
      fill="none"
      xmlns="http://www.w3.org/2000/svg"
    >
      <path
        fill-rule="evenodd"
        clip-rule="evenodd"
        d="M6 0C2.68629 0 0 2.68629 0 6V10C0 13.3137 2.68629 16 6 16H10C13.3137 16 16 13.3137 16 10V6C16 2.68629 13.3137 0 10 0H6ZM5.25169 10.1382V5.40912L10.9917 11.2454C11.7358 12.0019 13.1774 11.5514 13.1774 10.5624V4.85282C13.1774 3.85671 11.7184 3.4103 10.9811 4.18081L9.21454 6.84695L9.46222 7.05901L11.6913 5.44625V9.9813L5.95127 4.14508C5.20724 3.38857 3.76562 3.83906 3.76562 4.82807V10.667C3.76562 11.6232 5.12751 12.0909 5.8992 11.3996L7.97615 8.54347L7.72847 8.33141L5.25169 10.1382Z"
        fill="#7E8A93"
      />
    </svg>