<svg
      width="53"
      height="53"
      viewBox="0 0 53 53"
      fill="none"
      xmlns="http://www.w3.org/2000/svg"
    >
      <g opacity="0.2">
        <path
          d="M52.8741 30.5661L46.2458 5.71241C46.0465 5.02172 45.6284 4.41438 45.0544 3.98162C44.4803 3.54887 43.7814 3.31407 43.0625 3.3125H9.9375C8.46344 3.3125 7.155 4.29962 6.75419 5.71241L0.125875 30.5661C0.0428979 30.8598 0.000545957 31.1635 0 31.4688L0 43.0625C0 44.8196 0.697989 46.5047 1.94042 47.7471C3.18285 48.9895 4.86794 49.6875 6.625 49.6875H46.375C48.1321 49.6875 49.8172 48.9895 51.0596 47.7471C52.302 46.5047 53 44.8196 53 43.0625V31.4688C53 31.1706 52.9586 30.8675 52.8741 30.5661ZM49.6875 43.0625C49.6875 44.8877 48.2002 46.375 46.375 46.375H6.625C4.79816 46.375 3.3125 44.8877 3.3125 43.0625V31.4688L9.93916 6.62334H43.0592L49.6875 31.4688V43.0625Z"
          fill="#7E8A93"
        />
        <path
          d="M39.3227 9.9375H13.6773C12.927 9.9375 12.2695 10.4427 12.0757 11.1681L6.36993 31.0431C6.30472 31.2883 6.29672 31.5452 6.34655 31.794C6.39637 32.0428 6.50269 32.2768 6.6573 32.478C6.81191 32.6792 7.01067 32.8421 7.23825 32.9543C7.46583 33.0665 7.71614 33.1249 7.96987 33.125H15.5356L17.9322 37.9198C18.2081 38.4698 18.6314 38.9322 19.155 39.2554C19.6785 39.5786 20.2816 39.7499 20.8969 39.75H32.1031C33.3585 39.75 34.503 39.0411 35.0661 37.9198L37.4627 33.125H45.0285C45.2825 33.1252 45.5332 33.067 45.7612 32.9548C45.9891 32.8426 46.1882 32.6795 46.343 32.4781C46.4978 32.2767 46.6043 32.0424 46.654 31.7932C46.7038 31.5441 46.6956 31.2869 46.6301 31.0414L40.9243 11.1664C40.8301 10.8137 40.622 10.502 40.3324 10.2798C40.0427 10.0575 39.6878 9.93719 39.3227 9.9375ZM40.2154 29.8125H37.4627C36.2007 29.8125 35.0661 30.5114 34.4997 31.6427L32.1031 36.4375H20.8969L18.5003 31.6427C18.2267 31.0912 17.8041 30.6275 17.2804 30.304C16.7567 29.9805 16.1528 29.8103 15.5373 29.8125H8.83443L13.6773 11.5938H39.3227L44.1656 29.8125H40.2154Z"
          fill="#7E8A93"
        />
      </g>
    </svg>