<svg
      width="16"
      height="16"
      viewBox="0 0 16 16"
      fill="none"
      xmlns="http://www.w3.org/2000/svg"
    >
      <path
        fill-rule="evenodd"
        clip-rule="evenodd"
        d="M15.6822 10.24C14.7134 13.568 11.6407 16 8 16C4.35928 16 1.28658 13.568 0.317827 10.24H5.283C5.92862 11.0218 6.90538 11.5201 7.99852 11.5201C9.09165 11.5201 10.0684 11.0218 10.714 10.24H15.6822ZM15.84 9.59998H11.1348C11.3801 9.11996 11.5185 8.57619 11.5185 8.0001C11.5185 7.42387 11.3801 6.87998 11.1346 6.39989H15.8399C15.9449 6.9169 16 7.45201 16 8C16 8.54794 15.9449 9.08301 15.84 9.59998ZM4.86227 9.59998C4.61691 9.11996 4.47852 8.57619 4.47852 8.0001C4.47852 7.42387 4.61698 6.87998 4.86244 6.39989H0.160052C0.0550964 6.9169 0 7.45201 0 8C0 8.54794 0.0550867 9.08301 0.160024 9.59998H4.86227ZM1.59946 3.19994C1.02876 3.95971 0.590194 4.8244 0.317867 5.75989H5.28328C5.9289 4.97825 6.90554 4.4801 7.99852 4.4801C9.09149 4.4801 10.0681 4.97825 10.7138 5.75989H15.6821C15.4098 4.8244 14.9712 3.95971 14.4005 3.19994H1.59946ZM13.8657 2.55994H2.13431C3.59533 0.985349 5.68259 0 8 0C10.3174 0 12.4047 0.985349 13.8657 2.55994Z"
        fill="#7E8A93"
      />
    </svg>