<svg
      width="140"
      height="56"
      viewBox="0 0 300 56"
      fill="none"
      xmlns="http://www.w3.org/2000/svg"
    >
      <path
        d="M46.3463 37.2139H51.5973V30.2423C51.5973 26.053 54.0627 24.8697 56.368 24.8697C56.7842 24.8697 57.1684 24.9017 57.7127 24.9657V20.5525C57.2005 20.4246 56.7842 20.3926 56.432 20.3926C53.9026 20.3926 52.3337 22.0875 51.6933 24.7098H51.5973V20.5845H46.3463V37.2139Z"
        fill="#7E8A93"
      />
      <path
        d="M66.7178 37.5337C69.1832 37.5337 70.8802 36.2225 71.3284 34.9753V37.2139H76.5794V14.8281H71.3284V22.823C70.8802 21.5758 69.1832 20.2647 66.7178 20.2647C63.3239 20.2647 59.4817 22.7591 59.4817 28.8992C59.4817 35.0713 63.3239 37.5337 66.7178 37.5337ZM64.4125 28.8992C64.4125 25.957 66.1735 24.6139 68.0306 24.6139C69.8556 24.6139 71.5526 25.957 71.5526 28.8992C71.5526 31.8413 69.8556 33.1845 68.0306 33.1845C66.1735 33.1845 64.4125 31.8413 64.4125 28.8992Z"
        fill="#7E8A93"
      />
      <path
        d="M88.5014 37.5337C92.5997 37.5337 95.5774 35.423 96.3458 31.5855H91.7352C91.4471 32.6728 90.7427 33.5682 88.5974 33.5682C86.5483 33.5682 85.2676 32.6408 84.9794 30.2103H96.4739C96.5379 29.8266 96.57 29.5068 96.57 28.8992C96.57 22.4073 92.7918 20.2647 88.5014 20.2647C84.0509 20.2647 80.0166 22.6312 80.0166 28.8352C80.0166 35.2951 84.3711 37.5337 88.5014 37.5337ZM85.0114 27.1723C85.3316 25.2535 86.4202 24.2301 88.3733 24.2301C90.7747 24.2301 91.5111 25.7332 91.6071 27.1723H85.0114Z"
        fill="#7E8A93"
      />
      <path
        d="M99.9754 37.2139H105.226V30.2423C105.226 26.053 107.692 24.8697 109.997 24.8697C110.413 24.8697 110.797 24.9017 111.342 24.9657V20.5525C110.83 20.4246 110.413 20.3926 110.061 20.3926C107.532 20.3926 105.963 22.0875 105.322 24.7098H105.226V20.5845H99.9754V37.2139Z"
        fill="#7E8A93"
      />
      <path
        d="M114.412 37.2139H119.663V14.8281H114.412V37.2139Z"
        fill="#7E8A93"
      />
      <path
        d="M124.234 39.2606V43.6738C129.389 44.2174 131.534 42.4905 133.776 37.022L140.5 20.5845H135.12L131.47 30.5301L127.916 20.5845H122.569L128.621 35.519C129.037 36.5103 129.069 37.022 128.717 37.8215C128.429 38.4611 127.692 39.7083 124.234 39.2606Z"
        fill="#7E8A93"
      />
      <path
        d="M151.907 37.2139H157.254V23.8464H157.382L165.451 37.2139H171.214V14.8281H165.835V28.5474H165.707L157.446 14.8281H151.907V37.2139Z"
        fill="#7E8A93"
      />
      <path
        d="M183.096 37.5337C187.194 37.5337 190.172 35.423 190.941 31.5855H186.33C186.042 32.6728 185.337 33.5682 183.192 33.5682C181.143 33.5682 179.862 32.6408 179.574 30.2103H191.069C191.133 29.8266 191.165 29.5068 191.165 28.8992C191.165 22.4073 187.387 20.2647 183.096 20.2647C178.646 20.2647 174.611 22.6312 174.611 28.8352C174.611 35.2951 178.966 37.5337 183.096 37.5337ZM179.606 27.1723C179.926 25.2535 181.015 24.2301 182.968 24.2301C185.369 24.2301 186.106 25.7332 186.202 27.1723H179.606Z"
        fill="#7E8A93"
      />
      <path
        d="M202.19 37.4377C203.183 37.4377 204.144 37.3098 204.944 37.086V33.2164C204.208 33.2804 203.919 33.2804 203.567 33.2804C201.87 33.2804 201.55 32.353 201.55 31.2017V24.6459H204.816V20.5845H201.55V16.2352H196.299V20.5845H193.449V24.6459H196.299V31.9372C196.299 35.8068 198.604 37.4377 202.19 37.4377Z"
        fill="#7E8A93"
      />
      <path
        d="M211.685 37.2139H217.608L220.266 27.556L222.923 37.2139H228.814L233.169 20.5845H228.206L225.613 32.1611H225.485L222.507 20.5845H217.992L215.015 32.1611H214.887L212.293 20.5845H207.362L211.685 37.2139Z"
        fill="#7E8A93"
      />
      <path
        d="M243.267 37.5337C247.461 37.5337 251.72 35.0073 251.72 28.8992C251.72 22.7911 247.461 20.2647 243.267 20.2647C239.04 20.2647 234.814 22.7911 234.814 28.8992C234.814 35.0073 239.04 37.5337 243.267 37.5337ZM239.713 28.8992C239.713 25.957 241.218 24.6139 243.267 24.6139C245.284 24.6139 246.789 25.957 246.789 28.8992C246.789 31.8413 245.284 33.1845 243.267 33.1845C241.218 33.1845 239.713 31.8413 239.713 28.8992Z"
        fill="#7E8A93"
      />
      <path
        d="M255.117 37.2139H260.368V30.2423C260.368 26.053 262.833 24.8697 265.138 24.8697C265.555 24.8697 265.939 24.9017 266.483 24.9657V20.5525C265.971 20.4246 265.555 20.3926 265.203 20.3926C262.673 20.3926 261.104 22.0875 260.464 24.7098H260.368V20.5845H255.117V37.2139Z"
        fill="#7E8A93"
      />
      <path
        d="M269.554 37.2139H274.805V32.4169L276.117 31.0098L281.08 37.2139H286.844L279.319 27.62L285.979 20.5845H280.248L274.805 26.7885V14.8281H269.554V37.2139Z"
        fill="#7E8A93"
      />
      <path
        fill-rule="evenodd"
        clip-rule="evenodd"
        d="M37.5292 15.7929C37.6593 15.8983 37.5832 16.104 37.4158 16.104L21.0151 16.104C20.8477 16.104 20.7716 15.8983 20.9017 15.7929C23.1726 13.9535 26.0653 12.8516 29.2154 12.8516C32.3655 12.8516 35.2583 13.9535 37.5292 15.7929Z"
        fill="#7E8A93"
      />
      <path
        fill-rule="evenodd"
        clip-rule="evenodd"
        d="M24.0737 29.6649C23.9791 29.53 23.8269 29.4453 23.6622 29.4453L16.7469 29.4453C16.5885 29.4453 16.473 29.5957 16.517 29.7479C18.1114 35.2564 23.1931 39.284 29.2154 39.284C35.2378 39.284 40.3194 35.2564 41.9138 29.7479C41.9579 29.5957 41.8424 29.4453 41.684 29.4453L34.7688 29.4453C34.6041 29.4453 34.4518 29.53 34.3573 29.6649C33.2222 31.2834 31.3424 32.3415 29.2155 32.3415C27.0886 32.3415 25.2088 31.2834 24.0737 29.6649Z"
        fill="#7E8A93"
      />
      <path
        fill-rule="evenodd"
        clip-rule="evenodd"
        d="M33.865 21.8473C33.9607 21.9527 34.0949 22.0162 34.2373 22.0162L41.4712 22.0162C41.635 22.0162 41.7513 21.8566 41.6972 21.702C41.1867 20.2406 40.4268 18.8961 39.4684 17.7198C39.3785 17.6094 39.2429 17.5469 39.1005 17.5469L19.3303 17.5469C19.1879 17.5469 19.0524 17.6094 18.9624 17.7198C18.0041 18.8961 17.2441 20.2406 16.7336 21.702C16.6796 21.8566 16.7959 22.0162 16.9596 22.0162L24.1936 22.0162C24.3359 22.0162 24.4702 21.9527 24.5658 21.8473C25.714 20.5815 27.3719 19.7866 29.2154 19.7866C31.059 19.7866 32.7169 20.5815 33.865 21.8473Z"
        fill="#7E8A93"
      />
      <path
        fill-rule="evenodd"
        clip-rule="evenodd"
        d="M35.4369 28.0063C35.3139 28.0063 35.2266 27.8863 35.2597 27.7678C35.4105 27.2288 35.4912 26.6604 35.4912 26.0732C35.4912 25.2469 35.3315 24.4579 35.0413 23.7353C34.9921 23.613 35.0802 23.4766 35.212 23.4766L42.0298 23.4766C42.1162 23.4766 42.1907 23.5376 42.2066 23.6225C42.3555 24.4167 42.4334 25.236 42.4334 26.0734C42.4334 26.6763 42.3931 27.2697 42.3149 27.8512C42.3029 27.9403 42.2265 28.0063 42.1365 28.0063L35.4369 28.0063ZM23.1711 27.7678C23.2043 27.8863 23.117 28.0063 22.994 28.0063L16.2943 28.0063C16.2044 28.0063 16.1279 27.9403 16.116 27.8512C16.0378 27.2697 15.9974 26.6763 15.9974 26.0734C15.9974 25.236 16.0753 24.4167 16.2242 23.6225C16.2402 23.5376 16.3147 23.4766 16.4011 23.4766L23.2189 23.4766C23.3507 23.4766 23.4387 23.613 23.3896 23.7353C23.0994 24.4579 22.9397 25.2469 22.9397 26.0732C22.9397 26.6604 23.0203 27.2288 23.1711 27.7678Z"
        fill="#7E8A93"
      />
    </svg>