<svg
      width="16"
      height="14"
      viewBox="0 0 16 14"
      fill="none"
      xmlns="http://www.w3.org/2000/svg"
    >
      <path
        d="M11.2571 7.76057C11.1005 7.61143 10.8919 7.52943 10.6756 7.53206C10.4594 7.5347 10.2527 7.62177 10.0998 7.77468C9.94692 7.9276 9.85984 8.13423 9.85721 8.35047C9.85457 8.56671 9.93658 8.7754 10.0857 8.932L10.7343 9.58057H4.41429C3.68252 9.57982 2.98095 9.28879 2.46351 8.77135C1.94607 8.25392 1.65505 7.55234 1.65429 6.82057C1.65416 6.18757 1.83563 5.56782 2.17715 5.03486C2.29574 4.85034 2.33617 4.62628 2.28955 4.41195C2.24294 4.19762 2.11309 4.01059 1.92858 3.892C1.74406 3.77341 1.51999 3.73298 1.30567 3.77959C1.09134 3.82621 0.904308 3.95606 0.785718 4.14057C0.271637 4.9398 -0.00115865 5.87028 3.69903e-06 6.82057C0.00151569 7.99085 0.467076 9.11276 1.29459 9.94027C2.1221 10.7678 3.24401 11.2333 4.41429 11.2349H10.6486L10.0771 11.8063C9.93601 11.9643 9.86075 12.1703 9.86684 12.3821C9.87293 12.5939 9.95991 12.7953 10.1099 12.9449C10.2599 13.0945 10.4615 13.181 10.6733 13.1866C10.8851 13.1921 11.0909 13.1164 11.2486 12.9749L13.2657 10.9577C13.3425 10.881 13.4034 10.7899 13.445 10.6897C13.4866 10.5894 13.508 10.482 13.508 10.3734C13.508 10.2649 13.4866 10.1574 13.445 10.0572C13.4034 9.95691 13.3425 9.86583 13.2657 9.78914L11.2571 7.76057Z"
        fill="white"
      />
      <path
        d="M11.5857 2.132H4.80001L5.55144 1.38057C5.69258 1.22258 5.76784 1.01652 5.76175 0.804751C5.75566 0.592982 5.66868 0.39159 5.51869 0.241968C5.3687 0.0923464 5.1671 0.00586073 4.95532 0.000287087C4.74354 -0.00528655 4.53766 0.0704751 4.38001 0.212001L2.36287 2.22914C2.28607 2.30583 2.22514 2.39691 2.18357 2.49717C2.142 2.59743 2.12061 2.7049 2.12061 2.81343C2.12061 2.92196 2.142 3.02943 2.18357 3.12969C2.22514 3.22995 2.28607 3.32102 2.36287 3.39771L4.38001 5.41486C4.53766 5.55638 4.74354 5.63214 4.95532 5.62657C5.1671 5.621 5.3687 5.53451 5.51869 5.38489C5.66868 5.23527 5.75566 5.03388 5.76175 4.82211C5.76784 4.61034 5.69258 4.40428 5.55144 4.24629L5.09144 3.78629H11.5857C12.3175 3.78704 13.0191 4.07807 13.5365 4.59551C14.0539 5.11294 14.345 5.81452 14.3457 6.54629C14.3463 7.19597 14.1544 7.83126 13.7943 8.372C13.6748 8.5549 13.6323 8.77761 13.6762 8.99165C13.7201 9.20569 13.8467 9.39374 14.0286 9.51486C14.1644 9.60396 14.3233 9.65161 14.4857 9.652C14.6223 9.6521 14.7568 9.6182 14.877 9.55336C14.9972 9.48851 15.0994 9.39476 15.1743 9.28057C15.7132 8.47055 16.0005 7.51921 16 6.54629C15.9985 5.37601 15.5329 4.2541 14.7054 3.42658C13.8779 2.59907 12.756 2.13351 11.5857 2.132Z"
        fill="white"
      />
    </svg>