<svg
      width="16"
      height="16"
      viewBox="0 0 16 16"
      fill="none"
      xmlns="http://www.w3.org/2000/svg"
    >
      <g clip-path="url(#clip0_94_2291)">
        <path
          d="M9.77794 6.13333H6.22238C5.68905 6.13333 5.3335 5.77777 5.3335 5.24444C5.3335 4.71111 5.68905 4.35555 6.22238 4.35555H9.77794C10.3113 4.35555 10.6668 4.71111 10.6668 5.24444C10.6668 5.77777 10.3113 6.13333 9.77794 6.13333ZM9.77794 9.6H6.22238C5.68905 9.6 5.3335 9.24444 5.3335 8.71111C5.3335 8.17777 5.68905 7.82222 6.22238 7.82222H9.77794C10.3113 7.82222 10.6668 8.17777 10.6668 8.71111C10.6668 9.24444 10.3113 9.6 9.77794 9.6Z"
          fill="white"
        />
        <path
          d="M13.3331 1.77778V13.6889L9.15534 11.6444C8.79978 11.4667 8.35534 11.3778 7.99978 11.3778C7.64423 11.3778 7.19978 11.4667 6.84423 11.6444L2.66645 13.6889V1.77778H13.3331ZM13.3331 0H2.66645C1.68867 0 0.888672 0.8 0.888672 1.77778V15.1111C0.888672 15.6444 1.33312 16 1.77756 16C1.86645 16 2.04423 16 2.13312 15.9111L7.55534 13.2444C7.64423 13.1556 7.82201 13.1556 7.91089 13.1556C7.99978 13.1556 8.17756 13.1556 8.26645 13.2444L13.6887 15.9111C13.9553 16 14.1331 16 14.222 16C14.6664 16 15.1109 15.6444 15.1109 15.1111V1.77778C15.1109 0.8 14.3109 0 13.3331 0Z"
          fill="white"
        />
      </g>
      <defs>
        <clipPath id="clip0_94_2291">
          <rect width="16" height="16" fill="white" />
        </clipPath>
      </defs>
    </svg>