<svg
      width="191"
      height="13"
      viewBox="0 0 191 13"
      fill="none"
      xmlns="http://www.w3.org/2000/svg"
    >
      <path
        opacity="0.6"
        d="M8.099 3.799C8.099 3.34833 8.01667 2.94533 7.852 2.59C7.696 2.226 7.46633 1.92267 7.163 1.68C6.86833 1.42867 6.50867 1.238 6.084 1.108C5.668 0.969333 5.20433 0.899999 4.693 0.899999H1.287V10H2.314V6.789H4.524C5.00933 6.789 5.46867 6.72833 5.902 6.607C6.33533 6.477 6.71233 6.28633 7.033 6.035C7.36233 5.78367 7.62233 5.47167 7.813 5.099C8.00367 4.72633 8.099 4.293 8.099 3.799ZM7.059 3.838C7.059 4.14133 6.99833 4.41867 6.877 4.67C6.76433 4.91267 6.59533 5.125 6.37 5.307C6.15333 5.48033 5.889 5.61467 5.577 5.71C5.27367 5.80533 4.93567 5.853 4.563 5.853H2.314V1.849H4.615C5.35167 1.849 5.941 2.018 6.383 2.356C6.83367 2.68533 7.059 3.17933 7.059 3.838ZM16.3291 6.633C16.3291 6.15633 16.2425 5.70567 16.0691 5.281C15.8958 4.85633 15.6531 4.488 15.3411 4.176C15.0291 3.85533 14.6565 3.604 14.2231 3.422C13.7985 3.23133 13.3348 3.136 12.8321 3.136C12.3208 3.136 11.8485 3.23133 11.4151 3.422C10.9905 3.604 10.6221 3.85533 10.3101 4.176C9.99812 4.49667 9.75545 4.87367 9.58212 5.307C9.40878 5.73167 9.32212 6.18233 9.32212 6.659C9.32212 7.13567 9.40878 7.58633 9.58212 8.011C9.75545 8.43567 9.99812 8.80833 10.3101 9.129C10.6221 9.441 10.9905 9.69233 11.4151 9.883C11.8398 10.065 12.3035 10.156 12.8061 10.156C13.3088 10.156 13.7768 10.065 14.2101 9.883C14.6435 9.69233 15.0161 9.43667 15.3281 9.116C15.6401 8.79533 15.8828 8.42267 16.0561 7.998C16.2381 7.56467 16.3291 7.10967 16.3291 6.633ZM15.3021 6.659C15.3021 7.023 15.2415 7.36533 15.1201 7.686C14.9988 7.998 14.8298 8.271 14.6131 8.505C14.3965 8.739 14.1365 8.92533 13.8331 9.064C13.5298 9.194 13.1961 9.259 12.8321 9.259C12.4768 9.259 12.1475 9.18967 11.8441 9.051C11.5408 8.91233 11.2765 8.726 11.0511 8.492C10.8345 8.258 10.6611 7.98067 10.5311 7.66C10.4098 7.33933 10.3491 6.997 10.3491 6.633C10.3491 6.269 10.4098 5.931 10.5311 5.619C10.6525 5.29833 10.8171 5.021 11.0251 4.787C11.2418 4.54433 11.5018 4.358 11.8051 4.228C12.1085 4.08933 12.4421 4.02 12.8061 4.02C13.1615 4.02 13.4908 4.08933 13.7941 4.228C14.0975 4.36667 14.3618 4.55733 14.5871 4.8C14.8125 5.034 14.9858 5.31133 15.1071 5.632C15.2371 5.95267 15.3021 6.295 15.3021 6.659ZM22.7133 3.253H21.8813L20.0743 8.674L18.3063 3.279H17.2403L19.5933 10.052H20.4773L22.2973 4.748L24.1043 10.052H24.9753L27.3413 3.279H26.3013L24.5333 8.674L22.7133 3.253ZM29.2775 7.01H34.6075C34.6162 6.94933 34.6205 6.893 34.6205 6.841C34.6205 6.789 34.6205 6.74133 34.6205 6.698C34.6205 6.204 34.5512 5.74033 34.4125 5.307C34.2739 4.87367 34.0702 4.49667 33.8015 4.176C33.5329 3.85533 33.2035 3.604 32.8135 3.422C32.4235 3.23133 31.9815 3.136 31.4875 3.136C31.0195 3.136 30.5862 3.227 30.1875 3.409C29.7975 3.591 29.4595 3.84233 29.1735 4.163C28.8875 4.475 28.6622 4.84767 28.4975 5.281C28.3415 5.70567 28.2635 6.16067 28.2635 6.646C28.2635 7.166 28.3502 7.64267 28.5235 8.076C28.7055 8.50933 28.9482 8.882 29.2515 9.194C29.5549 9.49733 29.9102 9.73567 30.3175 9.909C30.7249 10.0737 31.1582 10.156 31.6175 10.156C32.2589 10.156 32.7962 10.0433 33.2295 9.818C33.6629 9.584 34.0485 9.27633 34.3865 8.895L33.7625 8.336C33.4852 8.622 33.1775 8.85167 32.8395 9.025C32.5102 9.19833 32.1115 9.285 31.6435 9.285C31.3489 9.285 31.0672 9.23733 30.7985 9.142C30.5299 9.038 30.2872 8.89067 30.0705 8.7C29.8539 8.50067 29.6762 8.26233 29.5375 7.985C29.3989 7.699 29.3122 7.374 29.2775 7.01ZM29.2775 6.269C29.3122 5.93967 29.3902 5.63633 29.5115 5.359C29.6329 5.08167 29.7889 4.84333 29.9795 4.644C30.1702 4.436 30.3912 4.27567 30.6425 4.163C30.8939 4.04167 31.1669 3.981 31.4615 3.981C31.7995 3.981 32.0942 4.046 32.3455 4.176C32.6055 4.29733 32.8222 4.462 32.9955 4.67C33.1775 4.878 33.3162 5.12067 33.4115 5.398C33.5155 5.67533 33.5805 5.96567 33.6065 6.269H29.2775ZM37.3739 7.322C37.3739 6.81933 37.4432 6.37733 37.5819 5.996C37.7205 5.606 37.9112 5.281 38.1539 5.021C38.3965 4.761 38.6782 4.566 38.9989 4.436C39.3282 4.306 39.6749 4.241 40.0389 4.241H40.1169V3.162C39.7962 3.15333 39.4972 3.19233 39.2199 3.279C38.9425 3.36567 38.6869 3.49567 38.4529 3.669C38.2189 3.83367 38.0109 4.033 37.8289 4.267C37.6469 4.501 37.4952 4.75667 37.3739 5.034V3.279H36.3729V10H37.3739V7.322ZM41.9474 7.01H47.2774C47.2861 6.94933 47.2904 6.893 47.2904 6.841C47.2904 6.789 47.2904 6.74133 47.2904 6.698C47.2904 6.204 47.2211 5.74033 47.0824 5.307C46.9438 4.87367 46.7401 4.49667 46.4714 4.176C46.2028 3.85533 45.8734 3.604 45.4834 3.422C45.0934 3.23133 44.6514 3.136 44.1574 3.136C43.6894 3.136 43.2561 3.227 42.8574 3.409C42.4674 3.591 42.1294 3.84233 41.8434 4.163C41.5574 4.475 41.3321 4.84767 41.1674 5.281C41.0114 5.70567 40.9334 6.16067 40.9334 6.646C40.9334 7.166 41.0201 7.64267 41.1934 8.076C41.3754 8.50933 41.6181 8.882 41.9214 9.194C42.2248 9.49733 42.5801 9.73567 42.9874 9.909C43.3948 10.0737 43.8281 10.156 44.2874 10.156C44.9288 10.156 45.4661 10.0433 45.8994 9.818C46.3328 9.584 46.7184 9.27633 47.0564 8.895L46.4324 8.336C46.1551 8.622 45.8474 8.85167 45.5094 9.025C45.1801 9.19833 44.7814 9.285 44.3134 9.285C44.0188 9.285 43.7371 9.23733 43.4684 9.142C43.1998 9.038 42.9571 8.89067 42.7404 8.7C42.5238 8.50067 42.3461 8.26233 42.2074 7.985C42.0688 7.699 41.9821 7.374 41.9474 7.01ZM41.9474 6.269C41.9821 5.93967 42.0601 5.63633 42.1814 5.359C42.3028 5.08167 42.4588 4.84333 42.6494 4.644C42.8401 4.436 43.0611 4.27567 43.3124 4.163C43.5638 4.04167 43.8368 3.981 44.1314 3.981C44.4694 3.981 44.7641 4.046 45.0154 4.176C45.2754 4.29733 45.4921 4.462 45.6654 4.67C45.8474 4.878 45.9861 5.12067 46.0814 5.398C46.1854 5.67533 46.2504 5.96567 46.2764 6.269H41.9474ZM55.4388 10V0.51H54.4378V4.566C54.3078 4.37533 54.1561 4.19333 53.9828 4.02C53.8181 3.84667 53.6318 3.695 53.4238 3.565C53.2158 3.435 52.9818 3.331 52.7218 3.253C52.4618 3.175 52.1758 3.136 51.8638 3.136C51.4565 3.136 51.0621 3.21833 50.6808 3.383C50.2995 3.539 49.9571 3.76867 49.6538 4.072C49.3505 4.36667 49.1078 4.73067 48.9258 5.164C48.7438 5.59733 48.6528 6.09133 48.6528 6.646C48.6528 7.20067 48.7438 7.69467 48.9258 8.128C49.1078 8.56133 49.3505 8.92967 49.6538 9.233C49.9571 9.52767 50.2995 9.753 50.6808 9.909C51.0621 10.065 51.4565 10.143 51.8638 10.143C52.1758 10.143 52.4575 10.104 52.7088 10.026C52.9688 9.948 53.2028 9.83967 53.4108 9.701C53.6188 9.56233 53.8051 9.402 53.9698 9.22C54.1431 9.038 54.2991 8.84733 54.4378 8.648V10H55.4388ZM54.4768 6.633C54.4768 7.023 54.4075 7.38267 54.2688 7.712C54.1388 8.03267 53.9568 8.30567 53.7228 8.531C53.4975 8.75633 53.2375 8.934 52.9428 9.064C52.6568 9.18533 52.3578 9.246 52.0458 9.246C51.7251 9.246 51.4218 9.18533 51.1358 9.064C50.8498 8.94267 50.5985 8.76933 50.3818 8.544C50.1651 8.31 49.9918 8.03267 49.8618 7.712C49.7405 7.39133 49.6798 7.03167 49.6798 6.633C49.6798 6.22567 49.7405 5.86167 49.8618 5.541C49.9918 5.21167 50.1608 4.93867 50.3688 4.722C50.5855 4.49667 50.8368 4.32767 51.1228 4.215C51.4088 4.09367 51.7165 4.033 52.0458 4.033C52.3578 4.033 52.6568 4.098 52.9428 4.228C53.2375 4.34933 53.4975 4.52267 53.7228 4.748C53.9568 4.97333 54.1388 5.24633 54.2688 5.567C54.4075 5.88767 54.4768 6.243 54.4768 6.633ZM68.3591 6.633C68.3591 6.07833 68.2681 5.58433 68.0861 5.151C67.9041 4.71767 67.6614 4.35367 67.3581 4.059C67.0547 3.75567 66.7081 3.526 66.3181 3.37C65.9367 3.214 65.5467 3.136 65.1481 3.136C64.8361 3.136 64.5501 3.17933 64.2901 3.266C64.0387 3.344 63.8091 3.45233 63.6011 3.591C63.3931 3.721 63.2024 3.877 63.0291 4.059C62.8644 4.241 62.7127 4.43167 62.5741 4.631V0.51H61.5731V10H62.5741V8.713C62.7041 8.90367 62.8514 9.08567 63.0161 9.259C63.1894 9.43233 63.3801 9.584 63.5881 9.714C63.7961 9.844 64.0301 9.948 64.2901 10.026C64.5501 10.104 64.8361 10.143 65.1481 10.143C65.5554 10.143 65.9497 10.065 66.3311 9.909C66.7211 9.74433 67.0634 9.51467 67.3581 9.22C67.6614 8.91667 67.9041 8.54833 68.0861 8.115C68.2681 7.68167 68.3591 7.18767 68.3591 6.633ZM67.3321 6.646C67.3321 7.05333 67.2671 7.42167 67.1371 7.751C67.0157 8.07167 66.8467 8.34467 66.6301 8.57C66.4221 8.78667 66.1707 8.95567 65.8761 9.077C65.5901 9.18967 65.2867 9.246 64.9661 9.246C64.6541 9.246 64.3507 9.18533 64.0561 9.064C63.7701 8.934 63.5101 8.75633 63.2761 8.531C63.0507 8.30567 62.8687 8.03267 62.7301 7.712C62.6001 7.38267 62.5351 7.023 62.5351 6.633C62.5351 6.243 62.6001 5.88767 62.7301 5.567C62.8687 5.24633 63.0507 4.97333 63.2761 4.748C63.5101 4.52267 63.7701 4.34933 64.0561 4.228C64.3507 4.098 64.6541 4.033 64.9661 4.033C65.2867 4.033 65.5901 4.09367 65.8761 4.215C66.1621 4.33633 66.4134 4.514 66.6301 4.748C66.8467 4.97333 67.0157 5.24633 67.1371 5.567C67.2671 5.88767 67.3321 6.24733 67.3321 6.646ZM75.9728 3.279H74.9068L72.7488 8.882L70.3048 3.279H69.1998L72.2548 9.974C72.0555 10.4507 71.8518 10.78 71.6438 10.962C71.4358 11.144 71.1801 11.235 70.8768 11.235C70.6601 11.235 70.4695 11.2133 70.3048 11.17C70.1488 11.1353 69.9885 11.0747 69.8238 10.988L69.4858 11.781C69.7111 11.8937 69.9365 11.976 70.1618 12.028C70.3871 12.0887 70.6385 12.119 70.9158 12.119C71.4185 12.119 71.8431 11.976 72.1898 11.69C72.5451 11.404 72.8658 10.9143 73.1518 10.221L75.9728 3.279Z"
        fill="white"
      />
      <path
        fill-rule="evenodd"
        clip-rule="evenodd"
        d="M93.0426 7.94222C92.3605 10.2857 90.1968 11.9983 87.6332 11.9983C85.0695 11.9983 82.9058 10.2857 82.2238 7.94222H85.721C86.1756 8.49272 86.8634 8.84358 87.6331 8.84358C88.4028 8.84358 89.0905 8.49272 89.5452 7.94222H93.0426ZM93.1537 7.49157H89.8414C90.0142 7.15356 90.1117 6.77065 90.1117 6.36498C90.1117 5.95933 90.0142 5.57644 89.8415 5.23845H93.1537C93.2276 5.60248 93.2663 5.97926 93.2663 6.36511C93.2663 6.75088 93.2276 7.1276 93.1537 7.49157ZM85.4247 7.49157C85.2519 7.15356 85.1545 6.77065 85.1545 6.36498C85.1545 5.95933 85.2519 5.57644 85.4247 5.23845H82.1127C82.0388 5.60248 82 5.97926 82 6.36511C82 6.75088 82.0388 7.1276 82.1126 7.49157H85.4247ZM83.1264 2.98492C82.7245 3.51998 82.4156 4.12895 82.2238 4.78779H85.7209C86.1756 4.23726 86.8633 3.88638 87.6331 3.88638C88.4028 3.88638 89.0906 4.23726 89.5452 4.78779H93.0425C92.8508 4.12895 92.5419 3.51998 92.1399 2.98492H83.1264ZM91.7633 2.53427H83.5031C84.5318 1.42566 86.0015 0.731934 87.6332 0.731934C89.2649 0.731934 90.7345 1.42566 91.7633 2.53427Z"
        fill="white"
      />
      <path
        d="M99.1021 5.06001V3.0537C98.5301 3.02847 98.0758 3.15465 97.7393 3.43225C97.4028 3.70985 97.1378 4.07999 96.9444 4.54266V3.17989H95.0264V9.9433H96.9444V7.44487C96.9444 6.62889 97.1252 6.02742 97.4869 5.64046C97.8571 5.25349 98.3618 5.06001 99.0011 5.06001H99.1021Z"
        fill="white"
      />
      <path
        d="M107.102 9.9433V0.731934H105.184V4.06317C104.957 3.79398 104.675 3.55843 104.338 3.35654C104.01 3.15465 103.59 3.0537 103.076 3.0537C102.673 3.0537 102.286 3.12941 101.916 3.28083C101.545 3.43225 101.217 3.65938 100.931 3.96222C100.654 4.25665 100.427 4.62258 100.25 5.06001C100.082 5.48904 99.9976 5.98536 99.9976 6.54897V6.57421C99.9976 7.13783 100.082 7.63835 100.25 8.07579C100.427 8.50481 100.658 8.87074 100.944 9.17358C101.23 9.46801 101.558 9.69093 101.928 9.84235C102.298 9.99377 102.681 10.0695 103.076 10.0695C103.581 10.0695 103.998 9.96854 104.326 9.76664C104.662 9.55634 104.948 9.29135 105.184 8.97169V9.9433H107.102ZM105.209 6.57421C105.209 6.85181 105.163 7.10839 105.07 7.34393C104.986 7.57106 104.868 7.76874 104.717 7.93699C104.574 8.09682 104.401 8.223 104.199 8.31554C104.006 8.39966 103.796 8.44172 103.569 8.44172C103.341 8.44172 103.127 8.39966 102.925 8.31554C102.732 8.223 102.559 8.09682 102.408 7.93699C102.256 7.76874 102.134 7.57106 102.042 7.34393C101.958 7.10839 101.916 6.85181 101.916 6.57421V6.54897C101.916 6.26296 101.958 6.00639 102.042 5.77926C102.134 5.55213 102.256 5.35865 102.408 5.19882C102.559 5.03057 102.732 4.90439 102.925 4.82027C103.127 4.72773 103.341 4.68146 103.569 4.68146C103.796 4.68146 104.006 4.72773 104.199 4.82027C104.401 4.90439 104.574 5.03057 104.717 5.19882C104.868 5.35865 104.986 5.55633 105.07 5.79188C105.163 6.01901 105.209 6.27137 105.209 6.54897V6.57421Z"
        fill="white"
      />
      <path
        d="M120.63 5.06001V3.0537C120.058 3.02847 119.603 3.15465 119.267 3.43225C118.93 3.70985 118.665 4.07999 118.472 4.54266V3.17989H116.554V9.9433H118.472V7.44487C118.472 6.62889 118.653 6.02742 119.014 5.64046C119.385 5.25349 119.889 5.06001 120.529 5.06001H120.63Z"
        fill="white"
      />
      <path d="M123.834 9.9433V0.731934H121.916V9.9433H123.834Z" fill="white" />
      <path
        d="M145.035 9.9433V1.11048H143.117V6.54897L138.978 1.11048H137.187V9.9433H139.105V4.32815L143.382 9.9433H145.035Z"
        fill="white"
      />
      <path
        d="M153.263 6.75087V6.72563C153.263 6.24614 153.196 5.78767 153.061 5.35023C152.935 4.90439 152.733 4.51322 152.455 4.17673C152.186 3.83183 151.845 3.55843 151.433 3.35654C151.021 3.15465 150.533 3.0537 149.969 3.0537C149.473 3.0537 149.019 3.14624 148.607 3.3313C148.203 3.51637 147.854 3.76874 147.559 4.0884C147.265 4.40807 147.034 4.78241 146.865 5.21143C146.706 5.64046 146.626 6.09472 146.626 6.57421V6.59945C146.626 7.121 146.714 7.59629 146.891 8.02532C147.067 8.44593 147.311 8.81186 147.622 9.12311C147.942 9.43436 148.316 9.67411 148.745 9.84235C149.183 10.0106 149.654 10.0947 150.159 10.0947C150.773 10.0947 151.307 9.98536 151.761 9.76664C152.215 9.53951 153.238 8.64536 153.238 7.69H151.761C151.761 7.69 151.708 8.10265 151.042 8.39125C150.79 8.50061 150.504 8.55529 150.184 8.55529C149.755 8.55529 149.393 8.44593 149.099 8.22721C148.813 8.00008 148.623 7.6678 148.531 7.23036H153.238C153.246 7.13783 153.25 7.05791 153.25 6.99062C153.259 6.92332 153.263 6.8434 153.263 6.75087ZM151.395 6.03162H148.506C148.581 5.59419 148.741 5.24508 148.985 4.9843C149.238 4.72353 149.566 4.59314 149.969 4.59314C150.373 4.59314 150.697 4.72773 150.941 4.99692C151.185 5.2577 151.336 5.6026 151.395 6.03162Z"
        fill="white"
      />
      <path
        d="M158.49 10.0569V8.36601C158.49 8.36601 157.88 8.36601 157.544 8.36601C157.132 8.36601 156.926 8.14729 156.926 7.70986V4.82027H158.516V3.17989H156.926V1.45118H155.008V3.17989H154.2V4.82027H155.008V8.02532C155.008 8.42069 155.054 8.74877 155.146 9.00954C155.247 9.26191 155.382 9.46801 155.55 9.62784C155.727 9.78767 155.933 9.89703 156.169 9.95592C156.413 10.0232 156.682 10.0569 156.976 10.0569C157.296 10.0569 157.485 10.0568 157.822 10.0569C158.161 10.0568 158.49 10.0569 158.49 10.0569Z"
        fill="white"
      />
      <path
        d="M169.633 3.17989H167.727L166.617 7.29345L165.33 3.15465H163.677L162.403 7.28084L161.317 3.17989H159.374L161.456 9.99377H163.172L164.497 5.84235L165.797 9.99377H167.526L169.633 3.17989Z"
        fill="white"
      />
      <path
        d="M177.788 6.57421V6.54897C177.788 6.06107 177.696 5.60681 177.511 5.1862C177.326 4.75717 177.069 4.38704 176.741 4.07579C176.421 3.75612 176.039 3.50796 175.593 3.3313C175.147 3.14624 174.663 3.0537 174.142 3.0537C173.612 3.0537 173.124 3.14624 172.678 3.3313C172.232 3.51637 171.845 3.76874 171.517 4.0884C171.189 4.40807 170.932 4.78241 170.747 5.21143C170.562 5.63204 170.47 6.0863 170.47 6.57421V6.59945C170.47 7.08736 170.562 7.54582 170.747 7.97484C170.932 8.39545 171.185 8.76559 171.504 9.08526C171.833 9.39651 172.219 9.64467 172.665 9.82973C173.111 10.0064 173.595 10.0947 174.116 10.0947C174.646 10.0947 175.134 10.0022 175.58 9.81712C176.026 9.63205 176.413 9.37968 176.741 9.06002C177.069 8.74035 177.326 8.37022 177.511 7.94961C177.696 7.52058 177.788 7.06212 177.788 6.57421ZM175.896 6.59945C175.896 6.85181 175.854 7.09156 175.769 7.31869C175.694 7.53741 175.58 7.73089 175.429 7.89913C175.277 8.06738 175.092 8.20197 174.874 8.30292C174.663 8.39545 174.419 8.44172 174.142 8.44172C173.872 8.44172 173.629 8.39125 173.41 8.2903C173.2 8.18935 173.014 8.05476 172.855 7.88652C172.695 7.70986 172.573 7.51217 172.489 7.29345C172.405 7.06633 172.363 6.82658 172.363 6.57421V6.54897C172.363 6.29661 172.4 6.06107 172.476 5.84235C172.56 5.61522 172.678 5.41753 172.829 5.24929C172.981 5.08104 173.162 4.95066 173.372 4.85812C173.591 4.75717 173.839 4.7067 174.116 4.7067C174.377 4.7067 174.617 4.75717 174.836 4.85812C175.054 4.95907 175.244 5.09787 175.404 5.27452C175.563 5.44277 175.685 5.64046 175.769 5.86759C175.854 6.0863 175.896 6.32184 175.896 6.57421V6.59945Z"
        fill="white"
      />
      <path
        d="M183.253 5.06001V3.0537C182.681 3.02847 182.227 3.15465 181.89 3.43225C181.554 3.70985 181.289 4.07999 181.095 4.54266V3.17989H179.177V9.9433H181.095V7.44487C181.095 6.62889 181.276 6.02742 181.638 5.64046C182.008 5.25349 182.513 5.06001 183.152 5.06001H183.253Z"
        fill="white"
      />
      <path
        d="M191 9.9433L188.338 5.84235L190.912 3.17989H188.615L186.369 5.64046V0.731934H184.451V9.9433H186.369V7.88652L187.038 7.17989L188.805 9.9433H191Z"
        fill="white"
      />
      <path
        d="M130.077 3.17983H132.071L129.472 10.1073C129.346 10.4522 129.211 10.7424 129.068 10.9779C128.925 11.2219 128.765 11.4196 128.588 11.571C128.42 11.7224 128.227 11.8318 128.008 11.8991C127.789 11.9664 127.537 12 127.251 12H126.39V10.3939C126.615 10.3939 126.885 10.4101 127.011 10.4101C127.179 10.4101 127.31 10.3765 127.402 10.3092C127.503 10.2503 127.596 10.1367 127.68 9.96848L125.03 3.17983H127.062L128.601 7.78552L130.077 3.17983Z"
        fill="white"
      />
      <path
        d="M115.124 6.75087V6.72563C115.124 6.24614 115.056 5.78767 114.922 5.35023C114.796 4.90439 114.594 4.51322 114.316 4.17673C114.047 3.83183 113.706 3.55843 113.294 3.35654C112.882 3.15465 112.394 3.0537 111.83 3.0537C111.334 3.0537 110.88 3.14624 110.467 3.3313C110.064 3.51637 109.715 3.76874 109.42 4.0884C109.126 4.40807 108.894 4.78241 108.726 5.21143C108.566 5.64046 108.486 6.09472 108.486 6.57421V6.59945C108.486 7.121 108.575 7.59629 108.751 8.02532C108.928 8.44593 109.172 8.81186 109.483 9.12311C109.803 9.43436 110.177 9.67411 110.606 9.84235C111.044 10.0106 111.515 10.0947 112.019 10.0947C112.634 10.0947 113.168 9.98536 113.622 9.76664C114.076 9.53951 115.098 8.64536 115.098 7.69H113.622C113.622 7.69 113.569 8.10265 112.903 8.39125C112.65 8.50061 112.364 8.55529 112.045 8.55529C111.616 8.55529 111.254 8.44593 110.96 8.22721C110.674 8.00008 110.484 7.6678 110.392 7.23036H115.098C115.107 7.13783 115.111 7.05791 115.111 6.99062C115.119 6.92332 115.124 6.8434 115.124 6.75087ZM113.256 6.03162H110.366C110.442 5.59419 110.602 5.24508 110.846 4.9843C111.098 4.72353 111.426 4.59314 111.83 4.59314C112.234 4.59314 112.558 4.72773 112.802 4.99692C113.046 5.2577 113.197 5.6026 113.256 6.03162Z"
        fill="white"
      />
    </svg>