<svg
      width="12"
      height="10"
      viewBox="0 0 12 10"
      fill="none"
      xmlns="http://www.w3.org/2000/svg"
    >
      <path
        d="M5.14245 8.8V9.6L3.42407 8L5.14245 6.4V7.2H7.71359C8.25243 7.20012 8.77769 7.04221 9.21517 6.74859C9.65266 6.45496 9.98027 6.04046 10.1517 5.56363C10.3232 5.0868 10.3298 4.57174 10.1706 4.0912C10.0115 3.61066 9.69466 3.18894 9.26484 2.8856L9.27427 2.8744L10.4827 1.7464C11.153 2.27578 11.6329 2.98458 11.8575 3.77689C12.082 4.56919 12.0405 5.40678 11.7383 6.17631C11.4362 6.94584 10.8882 7.61017 10.1683 8.07943C9.4485 8.54869 8.5916 8.80022 7.71359 8.8L5.14159 8.8008L5.14245 8.8ZM6.85654 0.8V0L8.61092 1.6L6.85654 3.2V2.4H4.2854C3.74649 2.4 3.2212 2.55805 2.78375 2.85184C2.3463 3.14563 2.01881 3.5603 1.84754 4.03726C1.67626 4.51422 1.66988 5.02935 1.82928 5.50988C1.98868 5.99041 2.30581 6.41204 2.73586 6.7152L1.51628 7.8528C0.84633 7.32334 0.366737 6.61461 0.142358 5.82244C-0.0820218 5.03028 -0.0403616 4.1929 0.261704 3.42356C0.56377 2.65421 1.11167 1.99002 1.8313 1.5208C2.55093 1.05158 3.40758 0.799969 4.2854 0.8H6.85654Z"
        fill="#7E8A93"
      />
    </svg>