<svg
      width="17"
      height="17"
      viewBox="0 0 17 17"
      fill="none"
      xmlns="http://www.w3.org/2000/svg"
    >
      <path
        d="M10.5506 12.206L8.71181 9.04904H7.49335V12.206H6.48535V4.48535H8.97766C9.56104 4.48535 10.0521 4.58504 10.4509 4.78443C10.857 4.98381 11.1598 5.25335 11.3592 5.59304C11.5586 5.93274 11.6583 6.32043 11.6583 6.75612C11.6583 7.28781 11.5032 7.75674 11.193 8.16289C10.8903 8.56904 10.4324 8.83858 9.81951 8.97151L11.758 12.206H10.5506ZM7.49335 8.24043H8.97766C9.52412 8.24043 9.93397 8.10751 10.2072 7.84166C10.4804 7.56843 10.617 7.20658 10.617 6.75612C10.617 6.29827 10.4804 5.94381 10.2072 5.69274C9.94135 5.44166 9.53151 5.31612 8.97766 5.31612H7.49335V8.24043Z"
        fill="currentColor"
      />
      <rect
        x="-0.707107"
        y="8.48528"
        width="13"
        height="13"
        rx="4.5"
        transform="rotate(-45 -0.707107 8.48528)"
        stroke="currentColor"
      />
    </svg>