<svg
      width="101"
      height="32"
      
      viewBox="0 0 101 32"
      fill="none"
      xmlns="http://www.w3.org/2000/svg"
    >
      <path
        d="M30 4.57764e-05L23.6365 4.52201e-05L30 6.36353L30 4.57764e-05Z"
        fill="#00C6A2"
      />
      <path
        fill-rule="evenodd"
        clip-rule="evenodd"
        d="M9.99899 1.81787H18.1806V9.37106L13.6687 13.5607L9.99899 9.89104V1.81787ZM13.5986 17.3475L18.1806 13.0927V29.999H9.99899V13.7479L13.5986 17.3475ZM19.086 19.0791C19.2368 19.0869 19.3887 19.0909 19.5416 19.0909C24.3112 19.0909 28.1777 15.2244 28.1777 10.4547C28.1777 8.54742 27.5594 6.78451 26.5123 5.35552L19.086 12.2514V19.0791ZM19.086 8.52974L24.5729 3.43475C23.1561 2.41753 21.4188 1.81858 19.5416 1.81858C19.3887 1.81858 19.2368 1.82255 19.086 1.83039V8.52974ZM9.09069 1.8186H0V13.5248L6.81662 6.70814L9.09069 8.98222V1.8186ZM9.09069 12.8391L6.81662 10.565L0 17.3816V29.9997H9.09069V12.8391ZM29.9995 29.9993H19.0907V19.0905L29.9995 29.9993Z"
        fill="url(#paint0_linear_2859_4576_mobile)"
      />
      <path
        fill-rule="evenodd"
        clip-rule="evenodd"
        d="M100.364 20.4801C98.4268 27.1361 92.2814 32 85 32C77.7186 32 71.5732 27.1361 69.6357 20.4801H79.5693C80.8606 22.0435 82.8139 23.0398 85 23.0398C87.186 23.0398 89.1393 22.0435 90.4306 20.4801H100.364ZM100.68 19.2001H91.2722C91.7631 18.2399 92.04 17.1522 92.04 15.9998C92.04 14.8477 91.7632 13.7602 91.2725 12.8002H100.68C100.89 13.8341 101 14.9042 101 16C101 17.0959 100.89 18.1661 100.68 19.2001ZM78.7277 19.2001C78.2368 18.2399 77.96 17.1522 77.96 15.9998C77.96 14.8477 78.2367 13.7602 78.7274 12.8002H69.32C69.1102 13.8341 69 14.9042 69 16C69 17.0959 69.1102 18.1661 69.3201 19.2001H78.7277ZM72.1992 6.39946C71.0576 7.9192 70.1803 9.64886 69.6356 11.5202H79.5689C80.8601 9.95645 82.8137 8.95984 85 8.95984C87.1863 8.95984 89.1398 9.95645 90.4311 11.5202H100.364C99.8197 9.64886 98.9424 7.9192 97.8008 6.39946H72.1992ZM96.731 5.11946H73.269C76.191 1.97052 80.3654 0 85 0C89.6346 0 93.809 1.97052 96.731 5.11946Z"
        fill="url(#paint1_linear_2859_4576_mobile)"
      />
      <circle cx="41.5" cy="17.5" r="1.5" fill="#D9D9D9" />
      <circle cx="49.5" cy="17.5" r="1.5" fill="#D9D9D9" />
      <circle cx="57.5" cy="17.5" r="1.5" fill="#D9D9D9" />
      <defs>
        <linearGradient
          id="paint0_linear_2859_4576_mobile"
          x1="14.089"
          y1="1.81787"
          x2="14.089"
          y2="29.9997"
          gradientUnits="userSpaceOnUse"
        >
          <stop stop-color="white" />
          <stop offset="1" stop-color="white" stop-opacity="0" />
        </linearGradient>
        <linearGradient
          id="paint1_linear_2859_4576_mobile"
          x1="85"
          y1="0"
          x2="85"
          y2="32"
          gradientUnits="userSpaceOnUse"
        >
          <stop stop-color="white" />
          <stop offset="1" stop-color="white" stop-opacity="0" />
        </linearGradient>
      </defs>
    </svg>