<svg
      width="57"
      height="18"
      viewBox="0 0 57 18"
      fill="none"
      xmlns="http://www.w3.org/2000/svg"
    >
      <path
        d="M16.8755 0.000132561L13.296 0.000132248L16.8755 3.57959L16.8755 0.000132561Z"
        fill="white"
      />
      <path
        fill-rule="evenodd"
        clip-rule="evenodd"
        d="M5.62415 1.02234H10.2263V5.27177L7.68901 7.62784L5.62415 5.56297V1.02234ZM7.64958 9.75788L10.2263 7.3652V16.8742H5.62415V7.73245L7.64958 9.75788ZM10.7356 10.732C10.8203 10.7364 10.9056 10.7386 10.9915 10.7386C13.6744 10.7386 15.8493 8.56365 15.8493 5.88074C15.8493 4.80784 15.5015 3.81618 14.9125 3.01236L10.7356 6.89088V10.732ZM10.7356 4.79745L13.8215 1.93195C13.0246 1.35979 12.0474 1.0229 10.9915 1.0229C10.9056 1.0229 10.8203 1.02513 10.7356 1.02952V4.79745ZM5.11351 1.02297H0V7.60777L3.8346 3.77317L5.11351 5.05208V1.02297ZM5.11351 7.22156L3.8346 5.94265L0 9.77725V16.8749H5.11351V7.22156ZM16.8752 16.8746H10.739V10.7384L16.8752 16.8746Z"
        fill="white"
      />
      <path
        fill-rule="evenodd"
        clip-rule="evenodd"
        d="M56.4549 11.5201C55.3651 15.2641 51.9083 18 47.8125 18C43.7167 18 40.2599 15.2641 39.1701 11.5201H44.7582C45.4845 12.3994 46.5832 12.9598 47.8128 12.9598C49.0424 12.9598 50.1411 12.3994 50.8675 11.5201H56.4549ZM56.6325 10.8001H51.3409C51.6171 10.2599 51.7728 9.64807 51.7728 8.99981C51.7728 8.35177 51.6172 7.74009 51.3412 7.20012H56.6325C56.7505 7.78168 56.8125 8.3836 56.8125 9C56.8125 9.61646 56.7505 10.2184 56.6325 10.8001ZM44.2847 10.8001C44.0086 10.2599 43.8528 9.64807 43.8528 8.99981C43.8528 8.35177 44.0085 7.74009 44.2845 7.20012H38.9925C38.8745 7.78168 38.8125 8.3836 38.8125 9C38.8125 9.61646 38.8745 10.2184 38.9925 10.8001H44.2847ZM40.612 3.59977C39.9699 4.45462 39.4764 5.42753 39.17 6.48012H44.7577C45.4841 5.60046 46.583 5.03981 47.8128 5.03981C49.0427 5.03981 50.1416 5.60046 50.8679 6.48012H56.455C56.1486 5.42753 55.6551 4.45462 55.013 3.59977H40.612ZM54.4112 2.87977H41.2138C42.8574 1.10845 45.2055 0 47.8125 0C50.4195 0 52.7676 1.10845 54.4112 2.87977Z"
        fill="white"
      />
      <circle cx="23.3438" cy="9.84375" r="0.84375" fill="white" />
      <circle cx="27.8438" cy="9.84375" r="0.84375" fill="white" />
      <circle cx="32.3438" cy="9.84375" r="0.84375" fill="white" />
    </svg>