<svg
      width="19"
      height="15"
      viewBox="0 0 19 15"
      fill="none"
      xmlns="http://www.w3.org/2000/svg"
    >
      <path
        d="M17.7394 8.45678C17.8945 8.29592 17.9737 8.0943 18.0076 7.88651C18.0109 7.87132 18.0149 7.85613 18.0179 7.84027C18.0229 7.79884 18.0295 7.7595 18.0299 7.71809C18.0312 7.69324 18.0369 7.66973 18.0369 7.64418C18.0369 7.2831 17.8622 6.96549 17.5967 6.77356L14.2814 3.33317C13.8822 2.91892 13.2347 2.91892 12.8362 3.3325C12.4376 3.74814 12.4363 4.41994 12.8355 4.83281L14.5229 6.58372L7.40254 6.58372C6.8376 6.58372 6.3805 7.05875 6.3805 7.64421C6.3805 8.2297 6.8376 8.7047 7.40254 8.7047L14.6088 8.7047L12.9207 10.4549C12.5228 10.8699 12.5228 11.5416 12.9207 11.9545C13.3206 12.3695 13.9687 12.3708 14.3666 11.9566L17.7394 8.45678Z"
        fill="currentColor"
      />
      <path
        fill-rule="evenodd"
        clip-rule="evenodd"
        d="M7.19471 1.56716C4.12065 1.56716 1.56716 4.18863 1.56716 7.5C1.56716 10.8114 4.12065 13.4328 7.19471 13.4328C8.38253 13.4328 9.48495 13.0456 10.3959 12.3799C10.7453 12.1246 11.2355 12.2008 11.4909 12.5502C11.7462 12.8997 11.6699 13.3899 11.3205 13.6452C10.1546 14.4972 8.73115 15 7.19471 15C3.18723 15 0 11.6074 0 7.5C0 3.39262 3.18723 0 7.19471 0C8.73115 0 10.1546 0.502764 11.3205 1.35477C11.6699 1.6101 11.7462 2.10034 11.4909 2.44976C11.2355 2.79917 10.7453 2.87544 10.3959 2.62011C9.48495 1.95445 8.38253 1.56716 7.19471 1.56716Z"
        fill="currentColor"
      />
    </svg>