<svg
      width="501"
      height="46"
      viewBox="0 0 501 46"
      fill="none"
      xmlns="http://www.w3.org/2000/svg"
      
    >
      <g filter="url(#filter0_d_4709_5574)">
        <path
          d="M495.906 26.406C501.355 6.357 485.503 0 469.156 0H111.992H47.0976C5.98156 0 4 9.78 4 23.472C4 37.164 9.94449 39.609 19.852 37.164C29.7594 34.719 35.2086 18.093 67.9032 18.093C100.598 18.093 91.3404 23.6519 116.45 26.406C143.2 29.34 184.812 19.56 218.497 19.56C252.182 19.56 250.201 26.406 287.849 26.406C325.498 26.406 318.067 19.56 339.368 19.56C360.669 19.56 382.044 24.2745 401.785 19.56C432.498 12.225 457.763 37.653 469.156 23.472C479.011 11.2058 490.637 45.7932 495.906 26.406Z"
          fill="url(#paint0_linear_4709_5574)"
        />
      </g>
      <defs>
        <filter
          id="filter0_d_4709_5574"
          x="0"
          y="0"
          width="501"
          height="46"
          filterUnits="userSpaceOnUse"
          color-interpolation-filters="sRGB"
        >
          <feFlood flood-opacity="0" result="BackgroundImageFix" />
          <feColorMatrix
            in="SourceAlpha"
            type="matrix"
            values="0 0 0 0 0 0 0 0 0 0 0 0 0 0 0 0 0 0 127 0"
            result="hardAlpha"
          />
          <feOffset dy="4" />
          <feGaussianBlur stdDeviation="2" />
          <feComposite in2="hardAlpha" operator="out" />
          <feColorMatrix
            type="matrix"
            values="0 0 0 0 0 0 0 0 0 0 0 0 0 0 0 0 0 0 0.25 0"
          />
          <feBlend
            mode="normal"
            in2="BackgroundImageFix"
            result="effect1_dropShadow_4709_5574"
          />
          <feBlend
            mode="normal"
            in="SourceGraphic"
            in2="effect1_dropShadow_4709_5574"
            result="shape"
          />
        </filter>
        <linearGradient
          id="paint0_linear_4709_5574"
          x1="241.532"
          y1="7.824"
          x2="241.532"
          y2="40.098"
          gradientUnits="userSpaceOnUse"
        >
          <stop stop-color="white" />
          <stop offset="1" stop-color="#828282" />
        </linearGradient>
      </defs>
    </svg>