<svg
      width="18"
      height="16"
      viewBox="0 0 18 16"
      fill="none"
      xmlns="http://www.w3.org/2000/svg"
    >
      <path
        d="M11.8995 12.9812H10.3774L6.93102 8.53341V12.9812H5.40894V6.49059H6.93102L10.3774 10.9476V6.49059H11.8995V12.9812Z"
        fill="currentColor"
      />
      <path
        fill-rule="evenodd"
        clip-rule="evenodd"
        d="M0 6.58865C0 4.97556 1.30767 3.66788 2.92076 3.66788H14.8202C16.4333 3.66788 17.7409 4.97556 17.7409 6.58865V13.0792C17.7409 14.6923 16.4333 16 14.8202 16H2.92076C1.30767 16 0 14.6923 0 13.0792V6.58865ZM2.92076 5.18236C2.14409 5.18236 1.51447 5.81197 1.51447 6.58865V13.0792C1.51447 13.8559 2.14409 14.4855 2.92076 14.4855H14.8202C15.5969 14.4855 16.2265 13.8559 16.2265 13.0792V6.58865C16.2265 5.81197 15.5969 5.18236 14.8202 5.18236H2.92076Z"
        fill="currentColor"
      />
      <path
        fill-rule="evenodd"
        clip-rule="evenodd"
        d="M13.7627 2.4106C13.4784 1.68152 12.6535 1.3248 11.9275 1.61695L3.20357 5.12761L2.63818 3.72263L11.3622 0.211975C12.87 -0.3948 14.5831 0.346065 15.1737 1.86033L16.0667 4.14998L14.6557 4.70025L13.7627 2.4106Z"
        fill="currentColor"
      />
    </svg>