<svg
      width="299"
      height="233"
      viewBox="0 0 299 233"
      fill="none"
      xmlns="http://www.w3.org/2000/svg"
    >
      <path
        d="M33.4627 207.129C27.0415 214.583 32.3372 226.135 42.1756 226.135H273.428C283.17 226.135 288.499 214.779 282.273 207.285L258.332 178.471H58.1499L33.4627 207.129Z"
        fill="#A9F5FF"
        stroke="black"
      />
      <path
        d="M57.5 70C57.5 61.4396 64.4396 54.5 73 54.5H157.5V178.5H57.5V70Z"
        fill="#CD703C"
        stroke="black"
      />
      <path
        d="M156.5 54.5H242C250.56 54.5 257.5 61.4396 257.5 70V178.5H156.5V54.5Z"
        fill="#4C87BE"
        stroke="black"
      />
      <ellipse cx="157.5" cy="199.135" rx="59.5" ry="12.5" fill="black" />
      <path
        d="M69.5594 90.6067C69.8772 89.726 71.1228 89.726 71.4406 90.6067L72.061 92.3258C73.1718 95.4042 75.5958 97.8282 78.6742 98.939L80.3933 99.5594C81.274 99.8772 81.274 101.123 80.3933 101.441L78.6742 102.061C75.5958 103.172 73.1718 105.596 72.061 108.674L71.4406 110.393C71.1228 111.274 69.8772 111.274 69.5594 110.393L68.939 108.674C67.8282 105.596 65.4042 103.172 62.3258 102.061L60.6067 101.441C59.726 101.123 59.726 99.8772 60.6067 99.5594L62.3258 98.939C65.4042 97.8282 67.8282 95.4042 68.939 92.3258L69.5594 90.6067Z"
        fill="#FCFF51"
        stroke="black"
        stroke-linejoin="round"
      />
      <path
        d="M249.559 118.607C249.877 117.726 251.123 117.726 251.441 118.607L252.061 120.326C253.172 123.404 255.596 125.828 258.674 126.939L260.393 127.559C261.274 127.877 261.274 129.123 260.393 129.441L258.674 130.061C255.596 131.172 253.172 133.596 252.061 136.674L251.441 138.393C251.123 139.274 249.877 139.274 249.559 138.393L248.939 136.674C247.828 133.596 245.404 131.172 242.326 130.061L240.607 129.441C239.726 129.123 239.726 127.877 240.607 127.559L242.326 126.939C245.404 125.828 247.828 123.404 248.939 120.326L249.559 118.607Z"
        fill="#FCFF51"
        stroke="black"
        stroke-linejoin="round"
      />
      <path
        d="M199.559 214.607C199.877 213.726 201.123 213.726 201.441 214.607L201.531 214.856C202.641 217.935 205.065 220.359 208.144 221.469L208.393 221.559C209.274 221.877 209.274 223.123 208.393 223.441L208.144 223.531C205.065 224.641 202.641 227.065 201.531 230.144L201.441 230.393C201.123 231.274 199.877 231.274 199.559 230.393L199.469 230.144C198.359 227.065 195.935 224.641 192.856 223.531L192.607 223.441C191.726 223.123 191.726 221.877 192.607 221.559L192.856 221.469C195.935 220.359 198.359 217.935 199.469 214.856L199.559 214.607Z"
        fill="#FCFF51"
        stroke="black"
        stroke-linejoin="round"
      />
      <ellipse cx="236" cy="192.5" rx="13" ry="2.5" fill="black" />
      <path
        d="M232.904 180.101H232.404V180.601V191.05V191.113L232.419 191.175L232.904 191.05C232.419 191.175 232.419 191.175 232.42 191.176L232.42 191.177L232.42 191.179L232.421 191.183L232.424 191.194C232.427 191.201 232.43 191.211 232.433 191.221C232.44 191.242 232.449 191.268 232.461 191.299C232.486 191.36 232.523 191.439 232.578 191.53C232.687 191.713 232.865 191.939 233.146 192.157C233.713 192.598 234.654 192.975 236.202 192.975C237.749 192.975 238.691 192.598 239.257 192.157C239.539 191.939 239.716 191.713 239.826 191.53C239.88 191.439 239.918 191.36 239.942 191.299C239.955 191.268 239.964 191.242 239.971 191.221C239.974 191.211 239.977 191.201 239.979 191.194L239.982 191.183L239.983 191.179L239.984 191.177L239.984 191.176C239.984 191.175 239.984 191.175 239.5 191.05L239.984 191.175L240 191.113V191.05V180.601V180.101H239.5H232.904Z"
        fill="#9F7258"
        stroke="black"
      />
      <path
        d="M239.494 190.632V180.601H235.542V192.475C239.823 192.475 239.494 190.632 239.494 190.632Z"
        fill="#C8A18C"
      />
      <path
        d="M223.851 181.934L223.793 182.119L223.874 182.294C224.242 183.094 225.334 184.278 227.362 185.257C229.406 186.243 232.427 187.038 236.714 187.038C241.001 187.038 243.965 186.244 245.937 185.253C247.892 184.271 248.903 183.078 249.205 182.258L249.263 182.1L249.214 181.938L237.192 142.853L236.721 141.322L236.237 142.849L223.851 181.934Z"
        fill="#008F2C"
        stroke="black"
      />
      <path
        d="M236.571 143H236.573C236.581 143.016 236.587 143.039 236.592 143.067L248.736 182.085C248.244 183.405 245.123 186.538 236.571 186.538C228.124 186.538 236.965 145.352 236.592 143.067L236.571 143Z"
        fill="#68F794"
      />
      <ellipse cx="257" cy="196.5" rx="13" ry="2.5" fill="black" />
      <path
        d="M252.733 183.463H252.233V183.963V195.822V195.885L252.249 195.946L252.733 195.822C252.249 195.946 252.249 195.947 252.249 195.947L252.249 195.948L252.25 195.95L252.251 195.955L252.254 195.966C252.256 195.974 252.259 195.984 252.263 195.995C252.27 196.017 252.28 196.046 252.294 196.079C252.32 196.145 252.361 196.232 252.421 196.332C252.541 196.533 252.738 196.782 253.05 197.025C253.678 197.514 254.731 197.939 256.476 197.939C258.221 197.939 259.274 197.514 259.903 197.025C260.215 196.782 260.411 196.533 260.531 196.332C260.591 196.232 260.632 196.145 260.659 196.079C260.672 196.046 260.682 196.017 260.689 195.995C260.693 195.984 260.696 195.974 260.698 195.966L260.702 195.955L260.703 195.95L260.703 195.948L260.704 195.947C260.704 195.947 260.704 195.946 260.22 195.822L260.704 195.946L260.72 195.885V195.822V183.963V183.463H260.22H252.733Z"
        fill="#9F7258"
        stroke="black"
      />
      <path
        d="M260.213 195.348V183.963H255.728V197.439C260.587 197.439 260.213 195.348 260.213 195.348Z"
        fill="#C8A18C"
      />
      <path
        d="M242.565 187.622C242.463 187.802 242.482 188.026 242.614 188.185C242.85 188.473 243.287 188.793 243.912 189.111C244.549 189.434 245.419 189.773 246.559 190.082C248.841 190.699 252.229 191.201 257.057 191.201C261.885 191.201 265.206 190.7 267.405 190.081C268.504 189.771 269.33 189.43 269.926 189.103C270.507 188.784 270.914 188.454 271.119 188.142C271.221 187.988 271.228 187.79 271.139 187.627L257.496 162.759C257.408 162.6 257.242 162.501 257.06 162.5C256.879 162.499 256.711 162.596 256.622 162.754L242.565 187.622Z"
        fill="#F7BF2F"
        stroke="black"
        stroke-linejoin="round"
      />
      <path
        d="M256.895 163H256.898C256.907 163.01 256.913 163.025 256.919 163.043L270.701 187.868C270.143 188.707 266.601 190.701 256.895 190.701C247.308 190.701 257.342 164.496 256.919 163.043L256.895 163Z"
        fill="#FFE5A2"
      />
      <path
        d="M151.618 185.026H151.118V185.526V197.788V197.869L151.144 197.946L151.618 197.788C151.144 197.946 151.144 197.946 151.144 197.947L151.145 197.948L151.146 197.95L151.148 197.956L151.152 197.969C151.156 197.978 151.16 197.989 151.165 198.001C151.176 198.025 151.19 198.056 151.208 198.091C151.245 198.163 151.301 198.253 151.38 198.356C151.541 198.562 151.797 198.812 152.197 199.052C152.995 199.531 154.347 199.96 156.634 199.96C158.922 199.96 160.273 199.531 161.072 199.052C161.472 198.812 161.728 198.562 161.888 198.356C161.968 198.253 162.023 198.163 162.061 198.091C162.079 198.056 162.093 198.025 162.104 198.001C162.109 197.989 162.113 197.978 162.117 197.969L162.121 197.956L162.123 197.95L162.124 197.948L162.124 197.947C162.124 197.946 162.125 197.946 161.65 197.788L162.125 197.946L162.15 197.869V197.788V185.526V185.026H161.65H151.618Z"
        fill="#9F7258"
        stroke="black"
      />
      <path
        d="M161.649 197.297V185.526H154.961V199.46C162.206 199.46 161.649 197.297 161.649 197.297Z"
        fill="#C8A18C"
      />
      <path
        d="M101.215 150.191L99.4133 149.3M101.085 152.196L97.5573 151.659M101.717 154.405L99.7867 155.52"
        stroke="black"
        stroke-linecap="round"
        stroke-linejoin="round"
      />
      <path
        d="M97.6459 175.879L97.6145 175.963V176.053C97.6145 178.402 99.3988 180.511 102.3 182.333C105.228 184.171 109.43 185.808 114.578 187.176C124.883 189.913 139.09 191.6 154.764 191.6C170.438 191.6 185.021 189.913 195.701 187.177C201.037 185.81 205.426 184.174 208.493 182.339C211.527 180.523 213.424 178.415 213.424 176.053C213.424 175.379 213.244 174.429 212.954 173.316C212.66 172.191 212.243 170.86 211.745 169.408C210.749 166.503 209.423 163.091 208.1 159.837C206.776 156.582 205.453 153.479 204.461 151.19C203.965 150.045 203.551 149.104 203.261 148.449C203.117 148.121 203.003 147.865 202.925 147.691L202.837 147.492L202.814 147.441L202.808 147.428L202.806 147.425L202.806 147.424C202.806 147.423 202.806 147.423 202.35 147.628L202.806 147.423L202.674 147.128H202.35H108.689H108.342L108.22 147.454L97.6459 175.879Z"
        fill="#008F2C"
        stroke="black"
      />
      <path
        d="M212.919 176.053C212.919 184.363 186.045 191.1 154.758 191.1C123.472 191.1 131.555 168.249 140.471 147.628H135.45H202.344C202.344 147.628 212.919 171.213 212.919 176.053Z"
        fill="#68F794"
      />
      <path
        d="M203.508 148.185C203.508 149.682 202.352 151.238 199.932 152.75C197.539 154.246 194.043 155.612 189.678 156.765C180.956 159.071 168.879 160.503 155.52 160.503C142.161 160.503 130.084 159.071 121.362 156.765C116.997 155.612 113.501 154.246 111.108 152.75C108.689 151.238 107.532 149.682 107.532 148.185C107.532 146.687 108.689 145.131 111.108 143.619C113.501 142.123 116.997 140.758 121.362 139.604C130.084 137.298 142.161 135.866 155.52 135.866C168.879 135.866 180.956 137.298 189.678 139.604C194.043 140.758 197.539 142.123 199.932 143.619C202.352 145.131 203.508 146.687 203.508 148.185Z"
        fill="#007825"
        stroke="black"
      />
      <circle
        cx="110.376"
        cy="153.202"
        r="6.87094"
        transform="rotate(165 110.376 153.202)"
        fill="#F7BF2F"
        stroke="black"
        stroke-linejoin="round"
      />
      <path
        d="M106.271 154.301C104.805 148.831 110.872 146.856 110.872 146.856C113.488 147.061 115.811 148.881 116.529 151.561C117.199 154.059 116.286 156.609 114.406 158.146C114.403 158.134 114.404 158.14 114.404 158.14C114.404 158.14 108.009 160.787 106.271 154.301Z"
        fill="#FFE5A2"
      />
      <circle
        cx="170.827"
        cy="165.721"
        r="7.55594"
        transform="rotate(146.661 170.827 165.721)"
        fill="#E23055"
        stroke="black"
        stroke-linejoin="round"
      />
      <circle
        cx="172.73"
        cy="164.449"
        r="4.86062"
        transform="rotate(146.661 172.73 164.449)"
        fill="#FE7E98"
      />
      <circle
        cx="210.433"
        cy="170.776"
        r="5.51596"
        transform="rotate(146.661 210.433 170.776)"
        fill="#DFDFDF"
        stroke="black"
        stroke-linejoin="round"
      />
      <circle
        cx="211.787"
        cy="169.874"
        r="3.45534"
        transform="rotate(146.661 211.787 169.874)"
        fill="white"
      />
      <path
        d="M151.618 135.98H151.118V136.48V148.742V148.823L151.144 148.9L151.618 148.742C151.144 148.9 151.144 148.9 151.144 148.901L151.145 148.902L151.146 148.905L151.148 148.91L151.152 148.923C151.156 148.932 151.16 148.943 151.165 148.955C151.176 148.98 151.19 149.01 151.208 149.046C151.245 149.117 151.301 149.207 151.38 149.31C151.541 149.517 151.797 149.766 152.197 150.006C152.995 150.485 154.347 150.914 156.634 150.914C158.922 150.914 160.273 150.485 161.072 150.006C161.472 149.766 161.728 149.517 161.888 149.31C161.968 149.207 162.023 149.117 162.061 149.046C162.079 149.01 162.093 148.98 162.104 148.955C162.109 148.943 162.113 148.932 162.117 148.923L162.121 148.91L162.123 148.905L162.124 148.902L162.124 148.901C162.124 148.9 162.125 148.9 161.65 148.742L162.125 148.9L162.15 148.823V148.742V136.48V135.98H161.65H151.618Z"
        fill="#9F7258"
        stroke="black"
      />
      <path
        d="M161.649 148.251V136.48H154.961V150.414C162.206 150.414 161.649 148.251 161.649 148.251Z"
        fill="#C8A18C"
      />
      <path
        d="M113.251 134.037L113.22 134.12V134.21C113.22 136.024 114.586 137.626 116.737 138.987C118.913 140.364 122.029 141.586 125.834 142.604C133.451 144.643 143.946 145.898 155.52 145.898C167.093 145.898 177.865 144.643 185.759 142.605C189.702 141.587 192.954 140.367 195.233 138.993C197.48 137.638 198.934 136.037 198.934 134.21C198.934 133.692 198.797 132.972 198.583 132.143C198.365 131.302 198.056 130.309 197.688 129.228C196.952 127.065 195.973 124.525 194.996 122.105C194.019 119.683 193.042 117.375 192.31 115.672C191.944 114.821 191.638 114.121 191.425 113.633C191.318 113.389 191.234 113.199 191.176 113.069L191.111 112.921L191.094 112.883L191.09 112.873L191.089 112.871L191.088 112.87C191.088 112.87 191.088 112.87 190.631 113.073L191.088 112.87L190.956 112.573H190.631H121.523H121.174L121.054 112.9L113.251 134.037Z"
        fill="#008F2C"
        stroke="black"
      />
      <path
        d="M198.433 134.21C198.433 140.389 178.604 145.398 155.518 145.398C132.433 145.398 138.242 129.793 143.816 113.073L143.814 113.073H190.63C190.63 113.073 198.433 130.611 198.433 134.21Z"
        fill="#68F794"
      />
      <path
        d="M191.244 113.631C191.244 114.668 190.445 115.784 188.675 116.895C186.93 117.991 184.373 118.996 181.168 119.847C174.766 121.548 165.894 122.605 156.075 122.605C146.255 122.605 137.383 121.548 130.981 119.847C127.776 118.996 125.219 117.991 123.474 116.895C121.705 115.784 120.906 114.668 120.906 113.631C120.906 112.594 121.705 111.478 123.474 110.366C125.219 109.271 127.776 108.266 130.981 107.415C137.383 105.714 146.255 104.656 156.075 104.656C165.894 104.656 174.766 105.714 181.168 107.415C184.373 108.266 186.93 109.271 188.675 110.366C190.445 111.478 191.244 112.594 191.244 113.631Z"
        fill="#007825"
        stroke="black"
      />
      <path
        d="M179.471 116.737L181.374 116.093M178.144 115.228L181.019 113.113M176.135 114.113L176.712 111.959"
        stroke="black"
        stroke-linecap="round"
        stroke-linejoin="round"
      />
      <circle
        cx="172.252"
        cy="119.995"
        r="5.51596"
        transform="rotate(165 172.252 119.995)"
        fill="#F7BF2F"
        stroke="black"
        stroke-linejoin="round"
      />
      <path
        d="M169.02 120.859C167.866 116.553 172.643 114.998 172.643 114.998C174.703 115.159 176.532 116.593 177.097 118.702C177.624 120.669 176.906 122.676 175.425 123.887C175.423 123.877 175.424 123.882 175.424 123.882C175.424 123.882 170.389 125.966 169.02 120.859Z"
        fill="#FFE5A2"
      />
      <path
        d="M151.618 100.312H151.118V100.812V113.073V113.154L151.144 113.231L151.618 113.073C151.144 113.231 151.144 113.231 151.144 113.232L151.145 113.233L151.146 113.236L151.148 113.241L151.152 113.254C151.156 113.263 151.16 113.274 151.165 113.286C151.176 113.311 151.19 113.341 151.208 113.377C151.245 113.448 151.301 113.538 151.38 113.641C151.541 113.848 151.797 114.097 152.197 114.338C152.995 114.816 154.347 115.245 156.634 115.245C158.922 115.245 160.273 114.816 161.072 114.338C161.472 114.097 161.728 113.848 161.888 113.641C161.968 113.538 162.023 113.448 162.061 113.377C162.079 113.341 162.093 113.311 162.104 113.286C162.109 113.274 162.113 113.263 162.117 113.254L162.121 113.241L162.123 113.236L162.124 113.233L162.124 113.232C162.124 113.231 162.125 113.231 161.65 113.073L162.125 113.231L162.15 113.154V113.073V100.812V100.312H161.65H151.618Z"
        fill="#9F7258"
        stroke="black"
      />
      <path
        d="M161.649 112.582V100.812H154.961V114.745C162.206 114.745 161.649 112.582 161.649 112.582Z"
        fill="#C8A18C"
      />
      <path
        d="M125.511 100.816L125.48 100.899V100.989C125.48 102.356 126.507 103.532 128.046 104.506C129.61 105.495 131.839 106.368 134.549 107.093C139.977 108.546 147.447 109.439 155.68 109.439C163.912 109.439 171.578 108.546 177.201 107.094C180.009 106.369 182.336 105.498 183.972 104.511C185.576 103.544 186.671 102.369 186.671 100.989C186.671 100.601 186.57 100.074 186.417 99.4839C186.261 98.8818 186.04 98.1724 185.778 97.4024C185.254 95.8618 184.557 94.0546 183.863 92.3337C183.168 90.6117 182.474 88.9704 181.953 87.7601C181.692 87.1548 181.475 86.657 181.323 86.3103C181.247 86.137 181.188 86.0015 181.147 85.9092L181.1 85.8038L181.088 85.7768L181.085 85.7699L181.084 85.7681L181.084 85.7676C181.084 85.7675 181.084 85.7675 180.627 85.9707L181.084 85.7675L180.952 85.4707H180.627H131.524H131.175L131.055 85.7975L125.511 100.816Z"
        fill="#008F2C"
        stroke="black"
      />
      <path
        d="M186.171 100.989C186.171 105.379 172.082 108.939 155.679 108.939C139.276 108.939 144.929 98.5835 150.503 85.9707H180.627C180.627 85.9707 186.171 98.4317 186.171 100.989Z"
        fill="#68F794"
      />
      <path
        d="M156.076 93.5977C162.888 93.5977 169.072 92.8412 173.569 91.6081C175.814 90.9926 177.667 90.2506 178.971 89.4057C180.253 88.5748 181.128 87.5587 181.128 86.3657C181.128 85.1727 180.253 84.1567 178.971 83.3258C177.667 82.4808 175.814 81.7389 173.569 81.1233C169.072 79.8902 162.888 79.1338 156.076 79.1338C149.265 79.1338 143.081 79.8902 138.584 81.1233C136.338 81.7389 134.486 82.4808 133.182 83.3258C131.9 84.1567 131.025 85.1727 131.025 86.3657C131.025 87.5587 131.9 88.5748 133.182 89.4057C134.486 90.2506 136.338 90.9926 138.584 91.6081C143.081 92.8412 149.265 93.5977 156.076 93.5977Z"
        fill="#007825"
        stroke="black"
      />
      <circle
        cx="136.581"
        cy="105.84"
        r="5.51596"
        transform="rotate(146.661 136.581 105.84)"
        fill="#7B6AE2"
        stroke="black"
        stroke-linejoin="round"
      />
      <circle
        cx="137.936"
        cy="104.937"
        r="3.45534"
        transform="rotate(146.661 137.936 104.937)"
        fill="#B7ABFF"
      />
      <path
        d="M151.618 71.332H151.118V71.832V84.0933V84.1744L151.144 84.2514L151.618 84.0933C151.144 84.2514 151.144 84.252 151.144 84.2525L151.145 84.2537L151.146 84.2562L151.148 84.2615L151.152 84.2742C151.156 84.2834 151.16 84.2942 151.165 84.3065C151.176 84.3311 151.19 84.3616 151.208 84.3971C151.245 84.4682 151.301 84.5587 151.38 84.6615C151.541 84.8681 151.797 85.118 152.197 85.358C152.995 85.8369 154.347 86.2653 156.634 86.2653C158.922 86.2653 160.273 85.8369 161.072 85.358C161.472 85.118 161.728 84.8681 161.888 84.6615C161.968 84.5587 162.023 84.4682 162.061 84.3971C162.079 84.3616 162.093 84.3311 162.104 84.3065C162.109 84.2942 162.113 84.2834 162.117 84.2742L162.121 84.2615L162.123 84.2562L162.124 84.2537L162.124 84.2525C162.124 84.252 162.125 84.2514 161.65 84.0933L162.125 84.2514L162.15 84.1744V84.0933V71.832V71.332H161.65H151.618Z"
        fill="#9F7258"
        stroke="black"
      />
      <path
        d="M161.649 83.6028V71.832H154.961V85.7653C162.206 85.7653 161.649 83.6028 161.649 83.6028Z"
        fill="#C8A18C"
      />
      <path
        d="M179.484 77.4042L180.598 79.0762M180.598 75.7322L183.385 77.9616M181.156 73.5029H183.385"
        stroke="black"
        stroke-linecap="round"
        stroke-linejoin="round"
      />
      <path
        d="M137.784 73.306L137.681 73.5465L137.819 73.7686C138.373 74.6538 140.005 75.9577 143.05 77.04C146.12 78.1314 150.684 79.0196 157.193 79.0196C163.701 79.0196 168.174 78.1316 171.132 77.0379C172.611 76.491 173.716 75.8908 174.508 75.3199C175.291 74.7557 175.796 74.1995 176.032 73.7272L176.134 73.5223L176.046 73.3109L157.654 29.2819L157.199 28.1939L156.733 29.2769L137.784 73.306Z"
        fill="#008F2C"
        stroke="black"
      />
      <path
        d="M157.19 29.4746H157.194C157.206 29.4929 157.215 29.5181 157.222 29.5502L175.582 73.5036C174.839 74.9898 170.121 78.5196 157.19 78.5196C144.419 78.5196 157.786 32.1236 157.222 29.5502L157.19 29.4746Z"
        fill="#68F794"
      />
      <path
        d="M154.962 26.688L157.191 20L160.535 26.688L167.223 27.2453L162.207 32.8186C162.765 35.2337 163.879 40.1753 163.879 40.6212C163.879 40.6798 163.809 40.6877 163.681 40.6542L160.535 41.1785L156.156 38.3919L152.175 41.1785L152.733 33.3759L147.717 27.8026L151.751 27.1819L154.962 26.688Z"
        fill="#FCFF51"
      />
      <path
        d="M163.879 40.6212C163.879 41.067 159.792 38.5776 157.749 37.2772L156.156 38.3919M163.879 40.6212C163.879 40.1753 162.765 35.2337 162.207 32.8186L167.223 27.2453L160.535 26.688L157.191 20L154.962 26.688L151.751 27.1819L147.717 27.8026L152.733 33.3759L152.175 41.1785L156.156 38.3919M163.879 40.6212L160.535 41.1785L156.156 38.3919"
        stroke="black"
        stroke-linejoin="round"
      />
      <path
        d="M144.931 28.3606L147.718 27.8032L152.734 33.3765L152.176 41.1791H149.39L149.947 33.3765L144.931 28.3606Z"
        fill="#FFD260"
      />
      <path
        d="M149.947 33.3765L144.931 28.3606L147.718 27.8032L152.734 33.3765M149.947 33.3765L149.39 41.1791H152.176L152.734 33.3765M149.947 33.3765H152.734"
        stroke="black"
        stroke-linejoin="round"
      />
      <path
        d="M153.849 20.5573L157.193 20L154.963 26.688L151.619 27.2453L153.849 20.5573Z"
        fill="#FFD260"
        stroke="black"
        stroke-linejoin="round"
      />
      <circle
        cx="174.468"
        cy="71.2744"
        r="5.51596"
        transform="rotate(150 174.468 71.2744)"
        fill="#F7BF2F"
        stroke="black"
        stroke-linejoin="round"
      />
      <path
        d="M172.24 72.9464C170.01 69.0851 173.556 66.3476 173.556 66.3476C175.587 65.9699 177.725 66.881 178.817 68.7724C179.835 70.5359 179.661 72.6607 178.544 74.2129C178.539 74.2048 178.542 74.2088 178.542 74.2088C178.542 74.2088 174.883 77.5251 172.24 72.9464Z"
        fill="#FFE5A2"
      />
      <path
        d="M183.609 86C185.535 87.7521 184.609 91.5 177.109 92.5C172.609 96 167.109 92.5 167.109 92.5C167.109 92.5 162.609 95 158.11 93.5C156.793 92.2397 156.975 90.8897 159.609 89C161.716 87.4882 165.011 87.3701 166.109 88C166.987 86.74 168.975 84.6142 171.609 83.6064C174.242 82.5986 177.011 84.0262 178.109 84.866C179.645 84.4461 182.223 84.7403 183.609 86Z"
        fill="white"
        stroke="black"
        stroke-linecap="round"
        stroke-linejoin="round"
      />
      <path
        d="M172.109 88C172.891 87.5556 173.674 87 175.239 87C176.229 87 177.326 87.7778 177.587 88C177.848 87.6667 178.604 87 179.543 87C180.483 87 181.109 87.6146 181.109 87.6146"
        stroke="black"
        stroke-linecap="round"
        stroke-linejoin="round"
      />
      <ellipse cx="58.5" cy="204.879" rx="14.5" ry="3" fill="black" />
      <path
        d="M53.7328 191.175H53.2328V191.675V203.534V203.597L53.2485 203.658L53.7328 203.534C53.2485 203.658 53.2487 203.659 53.2488 203.659L53.249 203.66L53.2496 203.662L53.2508 203.667L53.2539 203.678C53.2563 203.686 53.2592 203.696 53.2629 203.707C53.2701 203.729 53.2801 203.757 53.2936 203.791C53.3205 203.857 53.3611 203.944 53.421 204.044C53.5414 204.244 53.7376 204.494 54.0498 204.737C54.6783 205.226 55.731 205.651 57.4762 205.651C59.2214 205.651 60.274 205.226 60.9026 204.737C61.2148 204.494 61.4109 204.244 61.5313 204.044C61.5912 203.944 61.6319 203.857 61.6588 203.791C61.6722 203.757 61.6822 203.729 61.6895 203.707C61.6931 203.696 61.6961 203.686 61.6984 203.678L61.7015 203.667L61.7028 203.662L61.7033 203.66L61.7036 203.659C61.7037 203.659 61.7038 203.658 61.2196 203.534L61.7038 203.658L61.7196 203.597V203.534V191.675V191.175H61.2196H53.7328Z"
        fill="#9F7258"
        stroke="black"
      />
      <path
        d="M61.213 203.059V191.675H56.7275V205.151C61.5867 205.151 61.213 203.059 61.213 203.059Z"
        fill="#C8A18C"
      />
      <path
        d="M43.5234 193.208L43.4649 193.392L43.5458 193.568C43.9549 194.457 45.1795 195.791 47.4726 196.898C49.7812 198.012 53.2 198.913 58.0573 198.913C62.9138 198.913 66.2671 198.012 68.4938 196.894C70.7039 195.784 71.8356 194.441 72.1703 193.532L72.2286 193.373L72.179 193.212L58.5352 148.853L58.0644 147.322L57.5806 148.849L43.5234 193.208Z"
        fill="#008F2C"
        stroke="black"
      />
      <path
        d="M57.895 149H57.8979C57.9065 149.018 57.9134 149.044 57.9187 149.076L71.701 193.359C71.1432 194.856 67.6011 198.413 57.895 198.413C48.3083 198.413 58.3422 151.669 57.9187 149.076L57.895 149Z"
        fill="#68F794"
      />
      <rect
        x="47.5"
        y="170.5"
        width="11"
        height="15"
        rx="5.5"
        fill="white"
        stroke="black"
      />
      <rect x="48" y="177" width="6" height="7" rx="3" fill="black" />
      <rect
        x="58.5"
        y="170.5"
        width="11"
        height="15"
        rx="5.5"
        fill="white"
        stroke="black"
      />
      <path
        d="M66 178L61 180.222L66 182"
        stroke="black"
        stroke-linecap="round"
        stroke-linejoin="round"
      />
      <path
        d="M61.7207 185.293C61.7207 186.863 60.5255 188.087 59.1103 188.087C57.6952 188.087 56.5 186.863 56.5 185.293C56.5 183.723 57.6952 182.5 59.1103 182.5C60.5255 182.5 61.7207 183.723 61.7207 185.293Z"
        fill="#FF5C00"
        stroke="black"
      />
      <path
        d="M41.5164 212.688C35.9164 212.688 31.183 215.021 29.5164 216.188C26.5164 216.188 20.4164 217.088 20.0164 220.688C19.5164 225.188 30.5164 226.688 48.5164 226.688C66.5163 226.688 60.0163 224.188 70.5163 224.188C81.0163 224.188 85.0163 223.188 85.0163 222.188C85.0163 221.188 84.5163 219.188 81.5163 218.188C78.5163 217.188 75.5163 218.188 73.0163 217.188C70.5163 216.188 68.0163 211.688 63.5163 211.188C59.0163 210.688 55.5163 211.188 52.0163 212.688C48.5163 214.188 48.5164 212.688 41.5164 212.688Z"
        fill="white"
        stroke="black"
        stroke-linecap="round"
        stroke-linejoin="round"
      />
      <path
        d="M59 220.578C60 219.911 61 219.078 63 219.078C64.2649 219.078 65.6667 220.245 66 220.578C66.3333 220.078 67.3 219.078 68.5 219.078C69.7 219.078 70.5 220 70.5 220"
        stroke="black"
        stroke-linecap="round"
        stroke-linejoin="round"
      />
      <path
        d="M41 220C41.5 219.333 42.9 218 44.5 218C46.1 218 47.1667 218.667 47.5 219C48 218.667 49.5 218 51.5 218"
        stroke="black"
        stroke-linecap="round"
        stroke-linejoin="round"
      />
      <path
        d="M83 71.4663V198.095C83.0008 203.448 88.5 216.5 155.994 216.5C209 216.5 231.812 202.5 231.812 198.095V71.4663C231.812 46.748 204.589 4 155.994 4C107.399 4 83 44.7316 83 71.4663Z"
        fill="white"
        fill-opacity="0.2"
        stroke="black"
      />
      <path
        d="M131.678 20.5308C126.856 22.735 115.477 30.0088 108.533 41.4707"
        stroke="white"
        stroke-width="5"
        stroke-linecap="round"
      />
      <path
        d="M104.676 48.6353C103.941 50.1047 102.251 53.7049 101.37 56.35"
        stroke="white"
        stroke-width="5"
        stroke-linecap="round"
      />
      <path
        d="M93.5647 207C91.1647 207.4 89.6845 209.833 89.0179 211C89.0179 211 85.5176 211 85.017 213.5C84.7065 215.05 88.7314 215.333 90.0647 215.5C89.8981 215.667 90.0647 216.2 92.0647 217C94.0647 217.8 97.8981 216.667 99.5647 216C99.7314 216.5 100.565 217.6 102.565 218C104.565 218.4 107.398 217.833 108.565 217.5C108.565 218 109.765 219.2 114.565 220C119.365 220.8 125.231 219.667 127.565 219C128.065 219.667 131.806 222 139.017 222C147.017 222 151.898 221 152.065 219.5C152.731 219.833 154.717 220.6 157.517 221C160.317 221.4 163.851 220.167 164.517 219C166.351 219.5 171.017 220 171.517 216C171.741 214.211 170.517 210.5 167.517 209C164.53 207.506 160.431 208.326 159.575 208.498L159.565 208.5C158.731 207.5 156.065 205.4 152.065 205C148.065 204.6 143.731 206.167 142.065 207C141.398 206 139.465 204 137.065 204C134.665 204 132.731 204.333 132.065 204.5C131.398 203.667 129.265 202 126.065 202C122.865 202 120.731 203.667 120.065 204.5C119.565 204 118.165 203 116.565 203C114.965 203 113.565 204.333 113.065 205C112.065 204.333 109.365 203 106.565 203C103.765 203 100.731 207 99.5647 209C98.5647 208.166 95.9647 206.6 93.5647 207Z"
        fill="white"
        stroke="black"
        stroke-linecap="round"
        stroke-linejoin="round"
      />
      <path
        d="M146.518 212.5C147.518 211.833 148.518 211 150.518 211C151.782 211 153.184 212.167 153.518 212.5C153.851 212 154.818 211 156.018 211C157.218 211 158.018 211.922 158.018 211.922"
        stroke="black"
        stroke-linecap="round"
        stroke-linejoin="round"
      />
      <path
        d="M114.518 209.5C115.518 208.833 116.518 208 118.518 208C119.782 208 121.184 209.167 121.518 209.5C121.851 209 122.818 208 124.018 208C125.218 208 126.018 208.922 126.018 208.922"
        stroke="black"
        stroke-linecap="round"
        stroke-linejoin="round"
      />
      <path
        d="M270.499 199.688C276.099 199.688 280.833 202.021 282.499 203.188C285.499 203.188 291.599 204.088 291.999 207.688C292.499 212.188 281.499 213.688 263.499 213.688C245.499 213.688 251.999 211.188 241.499 211.188C230.999 211.188 226.999 210.188 226.999 209.188C226.999 208.188 227.499 206.188 230.499 205.188C233.499 204.188 236.499 205.188 238.999 204.188C241.499 203.188 243.999 198.688 248.499 198.188C252.999 197.688 256.499 198.188 259.999 199.688C263.499 201.188 263.499 199.688 270.499 199.688Z"
        fill="white"
        stroke="black"
        stroke-linecap="round"
        stroke-linejoin="round"
      />
      <path
        d="M234.242 216.443C225.742 216.443 215.242 215.443 212.242 214.943C206.742 211.443 212.242 208.443 219.242 206.443C226.242 204.444 228.242 209.943 230.742 208.443C233.242 206.943 238.242 206.443 245.742 209.943C253.242 213.443 242.742 216.443 234.242 216.443Z"
        fill="white"
        stroke="black"
        stroke-linecap="round"
        stroke-linejoin="round"
      />
      <path
        d="M271 207.5C272 206.833 273 206 275 206C276.265 206 277.667 207.167 278 207.5C278.333 207 279.3 206 280.5 206C281.7 206 282.5 206.922 282.5 206.922"
        stroke="black"
        stroke-linecap="round"
        stroke-linejoin="round"
      />
      <path
        d="M251 204.5C252 203.833 253 203 255 203C256.265 203 257.667 204.167 258 204.5C258.333 204 259.3 203 260.5 203C261.7 203 262.5 203.922 262.5 203.922"
        stroke="black"
        stroke-linecap="round"
        stroke-linejoin="round"
      />
      <path
        d="M225 212C225.696 211.556 226.391 211 227.783 211C228.663 211 229.638 211.778 229.87 212C230.101 211.667 230.774 211 231.609 211C232.443 211 233 211.615 233 211.615"
        stroke="black"
        stroke-linecap="round"
        stroke-linejoin="round"
      />
      <circle cx="32" cy="29" r="4" fill="white" />
      <circle cx="78" cy="42" r="4" fill="white" />
      <circle cx="38" cy="112" r="4" fill="white" />
      <circle cx="22" cy="63" r="2" fill="white" />
      <circle cx="279" cy="107" r="2" fill="white" />
      <circle cx="268" cy="149" r="2" fill="white" />
      <circle cx="265" cy="22" r="2" fill="white" />
      <circle cx="187" cy="2" r="2" fill="white" />
      <circle cx="2" cy="153" r="2" fill="white" />
      <circle cx="82" cy="17" r="2" fill="white" />
      <circle cx="13" cy="193" r="4" fill="white" />
      <circle cx="221" cy="38" r="4" fill="white" />
      <circle cx="251" cy="55" r="4" fill="white" />
      <circle cx="294" cy="161" r="4" fill="white" />
    </svg>