<svg width="100" height="200"  viewBox="0 0 323 73" fill="none" xmlns="http://www.w3.org/2000/svg">
<path d="M80.84 8.47H107.84C121.73 8.47 131.04 16.41 131.04 29.72C131.04 38.39 127.04 44.47 120.42 47.72L133.11 71H114.67L103.67 50.36H97.81V71H80.81L80.84 8.47ZM103.84 37.17C109.79 37.17 113.36 35.06 113.36 29.72C113.36 24.38 109.75 22 103.8 22H97.8V37.14L103.84 37.17Z" fill="black"/>
<path d="M135.81 47.67C135.81 33.14 145.09 23.49 159.63 23.49C173.79 23.49 182.95 32.62 182.95 47.55V51.46H152.42V52.19C152.42 56.71 155.35 60.01 160.36 60.01C163.81 60.01 166.59 58.51 167.56 55.86H183C181.41 65.63 173.05 71.86 160 71.86C145 71.85 135.81 62.85 135.81 47.67ZM167.44 42.18C167.35 38.18 164.17 35.34 159.99 35.34C155.81 35.34 152.51 38.12 152.42 42.18H167.44Z" fill="black"/>
<path d="M217.89 36.31H209.34V71H192.49V36.31H186.49V24.1H192.49V22.76C192.49 11.16 199.09 5.54001 209.34 5.54001C212.962 5.59156 216.567 6.04092 220.09 6.88L217.65 19C216.257 18.6211 214.823 18.4162 213.38 18.39C210.2 18.39 209.38 19.86 209.38 22.06V24.1H217.93L217.89 36.31Z" fill="black"/>
<path d="M224.31 71L234.84 8.17999H276.42L274.62 19.18H246.18L243.75 33.76H269.13L267.33 44.76H242L237.54 71H224.31Z" fill="#00C08B"/>
<path d="M299.46 72.08C295.74 72.08 292.95 71.1033 291.09 69.15C289.153 67.0004 288.15 64.1695 288.3 61.28C288.297 60.2772 288.357 59.2752 288.48 58.28C288.6 57.32 288.84 55.91 289.2 54.05L292.8 34.79H278.8L280.51 24.53H307.87L300.94 61.34L302.47 61.79L315 49L322.2 55.45L316.71 61.75C314.191 64.6887 311.304 67.2901 308.12 69.49C305.552 71.1879 302.539 72.089 299.46 72.08V72.08ZM303.15 18.44C300.483 18.44 298.58 17.9167 297.44 16.87C296.906 16.378 296.481 15.7792 296.194 15.1125C295.906 14.4458 295.762 13.7261 295.77 13C295.778 12.592 295.808 12.1847 295.86 11.78C295.92 11.28 296.04 10.48 296.22 9.39999C296.415 7.66664 297.289 6.08112 298.65 4.98999C299.983 3.96999 301.983 3.45999 304.65 3.45999C307.35 3.45999 309.26 3.98999 310.37 5.02999C310.908 5.52891 311.334 6.13626 311.62 6.81197C311.907 7.48767 312.046 8.21637 312.03 8.94999C312.023 9.35801 311.993 9.7653 311.94 10.17C311.88 10.68 311.76 11.47 311.58 12.55C311.385 14.2834 310.511 15.8689 309.15 16.96C307.85 17.9467 305.85 18.44 303.15 18.44V18.44Z" fill="#00C08B"/>
<path d="M51.09 69.5C50.6922 69.5 50.3106 69.342 50.0293 69.0607C49.748 68.7793 49.59 68.3978 49.59 68V56C49.59 55.6022 49.748 55.2206 50.0293 54.9393C50.3106 54.658 50.6922 54.5 51.09 54.5C50.6922 54.5 50.3106 54.342 50.0293 54.0607C49.748 53.7794 49.59 53.3978 49.59 53V41C49.59 40.6022 49.748 40.2206 50.0293 39.9393C50.3106 39.658 50.6922 39.5 51.09 39.5C50.6922 39.5 50.3106 39.342 50.0293 39.0607C49.748 38.7794 49.59 38.3978 49.59 38V26C49.59 25.6022 49.748 25.2206 50.0293 24.9393C50.3106 24.658 50.6922 24.5 51.09 24.5C50.6922 24.5 50.3106 24.342 50.0293 24.0607C49.748 23.7794 49.59 23.3978 49.59 23V11C49.59 10.6022 49.748 10.2206 50.0293 9.93934C50.3106 9.65803 50.6922 9.5 51.09 9.5H63.09C63.4878 9.5 63.8694 9.65803 64.1507 9.93934C64.432 10.2206 64.59 10.6022 64.59 11V23C64.59 23.3978 64.432 23.7794 64.1507 24.0607C63.8694 24.342 63.4878 24.5 63.09 24.5C63.4878 24.5 63.8694 24.658 64.1507 24.9393C64.432 25.2206 64.59 25.6022 64.59 26V38C64.59 38.3978 64.432 38.7794 64.1507 39.0607C63.8694 39.342 63.4878 39.5 63.09 39.5C63.4878 39.5 63.8694 39.658 64.1507 39.9393C64.432 40.2206 64.59 40.6022 64.59 41V53C64.59 53.3978 64.432 53.7794 64.1507 54.0607C63.8694 54.342 63.4878 54.5 63.09 54.5C63.4878 54.5 63.8694 54.658 64.1507 54.9393C64.432 55.2206 64.59 55.6022 64.59 56V68C64.59 68.3978 64.432 68.7793 64.1507 69.0607C63.8694 69.342 63.4878 69.5 63.09 69.5H51.09Z" fill="#FF595A"/>
<path d="M63.12 10.85V22.85H58.12V25.85H63.12V37.85H58.12V40.85H63.12V52.85H58.12V55.85H63.12V67.85H51.12V56H56.12V53H51.12V41H56.12V38H51.12V26H56.12V23H51.12V11H63.12V10.85ZM63.12 8H51.12C50.3244 8 49.5613 8.31607 48.9987 8.87868C48.4361 9.44129 48.12 10.2044 48.12 11V23C48.1177 23.5298 48.2557 24.0508 48.52 24.51C48.2538 24.9648 48.1155 25.4831 48.12 26.01V38.01C48.1177 38.5398 48.2557 39.0608 48.52 39.52C48.2538 39.9747 48.1155 40.4931 48.12 41.02V53.02C48.1155 53.5469 48.2538 54.0652 48.52 54.52C48.2557 54.9792 48.1177 55.5002 48.12 56.03V68.03C48.12 68.8256 48.4361 69.5887 48.9987 70.1513C49.5613 70.7139 50.3244 71.03 51.12 71.03H63.12C63.9156 71.03 64.6787 70.7139 65.2413 70.1513C65.8039 69.5887 66.12 68.8256 66.12 68.03V56C66.1193 55.4693 65.9778 54.9482 65.71 54.49C65.9793 54.0361 66.1209 53.5178 66.12 52.99V40.99C66.1209 40.4622 65.9793 39.9439 65.71 39.49C65.9778 39.0318 66.1193 38.5107 66.12 37.98V25.98C66.1209 25.4522 65.9793 24.9339 65.71 24.48C65.9778 24.0218 66.1193 23.5007 66.12 22.97V10.97C66.12 10.1744 65.8039 9.41129 65.2413 8.84868C64.6787 8.28607 63.9156 7.97 63.12 7.97V8Z" fill="black"/>
<path d="M33.31 69.5C32.9122 69.5 32.5306 69.3419 32.2493 69.0606C31.968 68.7793 31.81 68.3978 31.81 68V54.35C31.81 53.9522 31.968 53.5706 32.2493 53.2893C32.5306 53.008 32.9122 52.85 33.31 52.85H37.5V52.44H33.31C32.9122 52.44 32.5306 52.282 32.2493 52.0006C31.968 51.7193 31.81 51.3378 31.81 50.94V37.29C31.81 36.8922 31.968 36.5106 32.2493 36.2293C32.5306 35.948 32.9122 35.79 33.31 35.79H37.5V35.38H33.31C32.9122 35.38 32.5306 35.2219 32.2493 34.9406C31.968 34.6593 31.81 34.2778 31.81 33.88V20.23C31.81 19.8322 31.968 19.4506 32.2493 19.1693C32.5306 18.888 32.9122 18.73 33.31 18.73H37.5V18.32H33.31C32.9122 18.32 32.5306 18.162 32.2493 17.8806C31.968 17.5993 31.81 17.2178 31.81 16.82V3.16998C31.81 2.77216 31.968 2.39063 32.2493 2.10932C32.5306 1.82802 32.9122 1.66998 33.31 1.66998H47C47.3978 1.66998 47.7794 1.82802 48.0607 2.10932C48.342 2.39063 48.5 2.77216 48.5 3.16998V16.82C48.5 17.2178 48.342 17.5993 48.0607 17.8806C47.7794 18.162 47.3978 18.32 47 18.32H42.81V18.73H47C47.3978 18.73 47.7794 18.888 48.0607 19.1693C48.342 19.4506 48.5 19.8322 48.5 20.23V33.88C48.5 34.2778 48.342 34.6593 48.0607 34.9406C47.7794 35.2219 47.3978 35.38 47 35.38H42.81V35.79H47C47.3978 35.79 47.7794 35.948 48.0607 36.2293C48.342 36.5106 48.5 36.8922 48.5 37.29V50.94C48.5 51.3378 48.342 51.7193 48.0607 52.0006C47.7794 52.282 47.3978 52.44 47 52.44H42.81V52.85H47C47.3978 52.85 47.7794 53.008 48.0607 53.2893C48.342 53.5706 48.5 53.9522 48.5 54.35V68C48.5 68.3978 48.342 68.7793 48.0607 69.0606C47.7794 69.3419 47.3978 69.5 47 69.5H33.31Z" fill="#00C1DE"/>
<path d="M47 3.16998V16.82H41.31V20.23H47V33.88H41.31V37.29H47V50.94H41.31V54.35H47V68H33.31V54.35H39V50.94H33.31V37.29H39V33.88H33.31V20.23H39V16.82H33.31V3.16998H47ZM47 0.169983H33.31C32.5143 0.169983 31.7513 0.486059 31.1887 1.04867C30.6261 1.61128 30.31 2.37433 30.31 3.16998V16.82C30.3122 17.4301 30.4968 18.0256 30.84 18.53C30.4953 19.03 30.3105 19.6227 30.31 20.23V33.88C30.3122 34.4901 30.4968 35.0856 30.84 35.59C30.4953 36.0899 30.3105 36.6827 30.31 37.29V50.94C30.3105 51.5472 30.4953 52.14 30.84 52.64C30.4968 53.1444 30.3122 53.7399 30.31 54.35V68C30.31 68.7956 30.6261 69.5587 31.1887 70.1213C31.7513 70.6839 32.5143 71 33.31 71H47C47.7956 71 48.5587 70.6839 49.1213 70.1213C49.6839 69.5587 50 68.7956 50 68V54.35C49.9986 53.7383 49.8101 53.1416 49.46 52.64C49.8117 52.1429 50.0004 51.5489 50 50.94V37.29C50.0004 36.6811 49.8117 36.0871 49.46 35.59C49.8101 35.0884 49.9986 34.4917 50 33.88V20.23C50.0004 19.6211 49.8117 19.0271 49.46 18.53C49.8101 18.0284 49.9986 17.4317 50 16.82V3.16998C50 2.37433 49.6839 1.61128 49.1213 1.04867C48.5587 0.486059 47.7956 0.169983 47 0.169983Z" fill="black"/>
<path d="M20.12 69.5C20.0336 69.5098 19.9464 69.5098 19.86 69.5L8.2 67.42C8.00668 67.3851 7.82217 67.3123 7.65708 67.2058C7.49199 67.0994 7.34959 66.9613 7.23806 66.7996C7.12653 66.6379 7.04809 66.4557 7.00723 66.2636C6.96637 66.0714 6.96391 65.8731 7 65.68L9 54C9.03061 53.8001 9.10131 53.6085 9.20785 53.4367C9.3144 53.2648 9.45459 53.1163 9.62 53C9.87101 52.8215 10.172 52.727 10.48 52.73V52.73C10.1863 52.6253 9.93161 52.4334 9.75 52.18C9.53015 51.8508 9.441 51.4514 9.5 51.06L11.56 39.4C11.6212 39.0521 11.8032 38.737 12.074 38.5102C12.3447 38.2834 12.6868 38.1594 13.04 38.16C12.702 38.046 12.4156 37.8153 12.2323 37.5092C12.0491 37.2032 11.9809 36.8418 12.04 36.49L14.18 24.9C14.2083 24.7006 14.277 24.509 14.3819 24.3371C14.4867 24.1651 14.6256 24.0164 14.79 23.9C15.0425 23.7245 15.3425 23.6303 15.65 23.63V23.63C15.3543 23.5238 15.0992 23.328 14.92 23.07C14.7094 22.7558 14.6271 22.3729 14.69 22L16.69 10.35C16.7531 10.003 16.9356 9.68902 17.2059 9.46252C17.4762 9.23603 17.8173 9.11131 18.17 9.10999H18.43L30.09 11.17C30.2899 11.1965 30.4821 11.2645 30.6543 11.3695C30.8265 11.4745 30.9749 11.6143 31.09 11.78C31.2036 11.9409 31.2842 12.1227 31.3271 12.3149C31.3701 12.5072 31.3744 12.706 31.34 12.9L29.34 24.56C29.2769 24.907 29.0944 25.2209 28.8241 25.4474C28.5537 25.6739 28.2127 25.7987 27.86 25.8V25.8C28.1969 25.9157 28.482 26.1468 28.665 26.4524C28.848 26.7579 28.9171 27.1184 28.86 27.47L26.8 39.12C26.7705 39.3202 26.7003 39.5122 26.5936 39.6842C26.487 39.8562 26.3462 40.0045 26.18 40.12C25.929 40.2984 25.628 40.3929 25.32 40.39C25.6588 40.5059 25.9454 40.7386 26.1286 41.0463C26.3118 41.354 26.3796 41.7169 26.32 42.07L24.26 53.72C24.2009 54.067 24.0209 54.3819 23.7518 54.6089C23.4828 54.8359 23.142 54.9602 22.79 54.96V54.96C23.1292 55.0722 23.4168 55.3026 23.6004 55.6091C23.7839 55.9157 23.8512 56.278 23.79 56.63L21.6 68.26C21.5369 68.607 21.3544 68.921 21.0841 69.1474C20.8138 69.3739 20.4727 69.4987 20.12 69.5V69.5Z" fill="#00C08B"/>
<path d="M18.22 10.59L29.88 12.59L27.82 24.3L23 23.44L22.48 26.35L27.34 27.21L25.28 38.86L20.4 38L19.88 40.91L24.74 41.77L22.74 53.42L17.88 52.56L17.37 55.48L22.22 56.33L20.22 67.99L8.57 65.93L10.57 54.28L15.42 55.14L15.94 52.22L11 51.38L13.06 39.72L17.91 40.58L18.43 37.67L13.57 36.81L15.62 25.16L20.48 26.01L21 23.1L16.15 22.24L18.15 10.59H18.22ZM18.15 7.59C17.5349 7.5894 16.9344 7.77792 16.43 8.13C16.1076 8.35671 15.833 8.64474 15.622 8.97762C15.4109 9.31049 15.2675 9.68169 15.2 10.07L13.21 21.72C13.1199 22.2326 13.1647 22.7599 13.34 23.25C13.0073 23.6446 12.7863 24.1211 12.7 24.63L10.7 36.29C10.6027 36.7982 10.6442 37.3233 10.82 37.81C10.4928 38.2119 10.2726 38.6901 10.18 39.2L8.18 50.86C8.08843 51.3685 8.12977 51.8921 8.30001 52.38C7.97671 52.7843 7.75702 53.2615 7.66001 53.77L5.66001 65.42C5.59089 65.8081 5.59892 66.206 5.68366 66.5909C5.76839 66.9759 5.92816 67.3404 6.15383 67.6636C6.37951 67.9868 6.66666 68.2623 6.99888 68.4745C7.3311 68.6866 7.70187 68.8312 8.09 68.9L19.75 70.9C19.9216 70.9315 20.0956 70.9482 20.27 70.95C20.8862 70.9477 21.4868 70.7556 21.99 70.4C22.6389 69.9445 23.0811 69.2506 23.22 68.47L25.28 56.81C25.3684 56.3006 25.3236 55.777 25.15 55.29C25.4799 54.8898 25.7004 54.4109 25.79 53.9L27.7 42.3C27.7901 41.7874 27.7453 41.2601 27.57 40.77C27.9031 40.3718 28.124 39.892 28.21 39.38L30.26 27.73C30.3516 27.2215 30.3102 26.6979 30.14 26.21C30.4658 25.8072 30.6858 25.3294 30.78 24.82L32.78 13.16C32.9167 12.3778 32.7376 11.5733 32.2821 10.9228C31.8266 10.2723 31.1318 9.82903 30.35 9.69L18.74 7.63C18.567 7.61495 18.393 7.61495 18.22 7.63L18.15 7.59Z" fill="black"/>
<path d="M71.5 68H0.5C0.223858 68 0 68.2239 0 68.5V70.5C0 70.7761 0.223858 71 0.5 71H71.5C71.7761 71 72 70.7761 72 70.5V68.5C72 68.2239 71.7761 68 71.5 68Z" fill="black"/>
</svg>
