<svg  viewBox="0 0 16 16" fill="none" xmlns="http://www.w3.org/2000/svg">
<circle opacity="0.5" cx="8" cy="8" r="8" fill="#141D28"/>
<path d="M8.03701 6.35841L9.01102 5.38371L9.0281 5.36661C9.24455 5.15571 9.52365 5.04171 9.82554 5.04741C10.1274 5.04741 10.4065 5.16711 10.6173 5.37801C10.828 5.58891 10.9476 5.87391 10.9476 6.17031C10.9476 6.47241 10.8337 6.75171 10.6287 6.96831L10.6116 6.98541L9.63757 7.96011L10.378 8.70112L11.3805 7.69791C12.2121 6.84861 12.2064 5.48061 11.3634 4.63701C10.5204 3.7934 9.15911 3.7877 8.30472 4.61991L7.29653 5.61741L8.03701 6.35841ZM8.69204 10.3769L7.95157 9.63592L7.71804 9.87532L6.97756 10.6163L6.97186 10.622C6.53328 11.0609 5.81559 11.0552 5.377 10.6163C4.93841 10.1774 4.93841 9.46492 5.3713 9.02032L5.377 9.01462L6.11747 8.27361L6.3567 8.03421L5.61623 7.29321L4.64222 8.27931L4.63652 8.28502C3.78783 9.13432 3.78783 10.5137 4.63652 11.363C5.48522 12.2123 6.86364 12.2123 7.71234 11.363L7.71804 11.3573L8.69204 10.3769ZM9.93946 10.7588L5.22321 6.04491C5.17381 5.99478 5.14612 5.92721 5.14612 5.85681C5.14612 5.78641 5.17381 5.71884 5.22321 5.66871L5.70167 5.18991C5.75176 5.14048 5.81928 5.11277 5.88963 5.11277C5.95998 5.11277 6.02751 5.14048 6.0776 5.18991L10.7882 9.90382C10.8907 10.0064 10.8907 10.1774 10.7882 10.28L10.3097 10.7588C10.2072 10.8671 10.042 10.8671 9.93946 10.7588Z" fill="currentColor"/>
</svg>
