<svg  viewBox="0 0 36 36" fill="none" xmlns="http://www.w3.org/2000/svg">
<g opacity="0.5">
<path d="M35.9145 20.7619L31.4123 3.88012C31.2768 3.41098 30.9929 2.99845 30.603 2.7045C30.2131 2.41055 29.7383 2.25106 29.25 2.25H6.75C5.74875 2.25 4.86 2.9205 4.58775 3.88012L0.0855 20.7619C0.0291382 20.9614 0.000370839 21.1677 0 21.375L0 29.25C0 30.4435 0.474106 31.5881 1.31802 32.432C2.16193 33.2759 3.30653 33.75 4.5 33.75H31.5C32.6935 33.75 33.8381 33.2759 34.682 32.432C35.5259 31.5881 36 30.4435 36 29.25V21.375C36 21.1725 35.9719 20.9666 35.9145 20.7619ZM33.75 29.25C33.75 30.4897 32.7397 31.5 31.5 31.5H4.5C3.25912 31.5 2.25 30.4897 2.25 29.25V21.375L6.75112 4.49888H29.2477L33.75 21.375V29.25Z" fill="currentColor"/>
<path d="M26.7099 6.75H9.29035C8.78073 6.75 8.3341 7.09313 8.20247 7.58588L4.32685 21.0859C4.28256 21.2524 4.27712 21.4269 4.31097 21.5959C4.34481 21.7649 4.41703 21.9239 4.52204 22.0605C4.62706 22.1972 4.76207 22.3079 4.91665 22.3841C5.07123 22.4603 5.24126 22.4999 5.4136 22.5H10.5526L12.1805 25.7569C12.3678 26.1304 12.6554 26.4445 13.011 26.6641C13.3666 26.8836 13.7763 26.9999 14.1942 27H21.806C22.6587 27 23.4361 26.5185 23.8186 25.7569L25.4465 22.5H30.5855C30.758 22.5001 30.9283 22.4606 31.0832 22.3844C31.238 22.3082 31.3732 22.1974 31.4784 22.0606C31.5835 21.9238 31.6558 21.7646 31.6896 21.5954C31.7234 21.4262 31.7179 21.2515 31.6733 21.0848L27.7977 7.58475C27.7337 7.34517 27.5924 7.13343 27.3957 6.98247C27.1989 6.83152 26.9578 6.74979 26.7099 6.75ZM27.3162 20.25H25.4465C24.5892 20.25 23.8186 20.7247 23.4339 21.4931L21.806 24.75H14.1942L12.5663 21.4931C12.3805 21.1186 12.0935 20.8036 11.7377 20.5839C11.382 20.3641 10.9718 20.2485 10.5537 20.25H6.00085L9.29035 7.875H26.7099L29.9994 20.25H27.3162Z" fill="currentColor"/>
</g>
</svg>
