<svg viewBox="0 0 16 16" fill="none" xmlns="http://www.w3.org/2000/svg">
<circle cx="8" cy="8" r="8" fill="#CB6168"/>
<path fill-rule="evenodd" clip-rule="evenodd" d="M4.73065 4.72992C5.0639 4.39667 5.6042 4.39667 5.93744 4.72992L8.00071 6.79318L10.064 4.72992C10.3972 4.39667 10.9375 4.39667 11.2708 4.72992C11.604 5.06316 11.604 5.60346 11.2708 5.93671L9.20751 7.99998L11.2708 10.0633C11.604 10.3965 11.604 10.9368 11.2708 11.27C10.9375 11.6033 10.3972 11.6033 10.064 11.27L8.00071 9.20678L5.93744 11.27C5.6042 11.6033 5.0639 11.6033 4.73065 11.27C4.3974 10.9368 4.3974 10.3965 4.73065 10.0633L6.79392 7.99998L4.73065 5.93671C4.3974 5.60346 4.3974 5.06316 4.73065 4.72992Z" fill="white"/>
</svg>
