<svg viewBox="0 0 14 14" fill="none" xmlns="http://www.w3.org/2000/svg">
<g opacity="0.5">
<path d="M8.4 13.0185L8.4 0.981562C8.4 0.439 8.79035 4.27284e-05 9.27284 4.27495e-05C9.75532 4.27706e-05 10.1457 0.439 10.1457 0.981562L10.1457 10.6356L11.5762 9.02696C11.918 8.64254 12.4708 8.64254 12.8103 9.02696C13.1521 9.41139 13.1521 10.033 12.8103 10.4147L9.97111 13.6101C9.81109 13.8473 9.55893 14 9.27284 14C8.79035 14 8.4 13.561 8.4 13.0185Z" fill="currentColor"/>
<path d="M4.66665 0.98152L4.66665 13.0184C4.66665 13.561 4.2763 14 3.79381 14C3.31133 14 2.92098 13.561 2.92098 13.0184L2.92098 3.36443L1.49049 4.97304C1.14863 5.35746 0.595833 5.35746 0.256396 4.97304C-0.0854656 4.58861 -0.0854656 3.96698 0.256396 3.58528L3.09554 0.389882C3.25556 0.152681 3.50772 1.53327e-07 3.79381 1.65833e-07C4.2763 1.86923e-07 4.66665 0.438958 4.66665 0.98152Z" fill="currentColor"/>
</g>
</svg>
