<svg viewBox="0 0 8 8" fill="none" xmlns="http://www.w3.org/2000/svg">
<path id="Union" fill-rule="evenodd" clip-rule="evenodd" d="M5.97871 8H2.02129C0.907217 8 0 7.09294 0 5.97905V2.02095C0 0.907063 0.907217 0 2.02129 0H3.73973C3.98175 0 4.17779 0.196012 4.17779 0.437986C4.17779 0.679959 3.98175 0.875972 3.73973 0.875972H2.02129C1.71573 0.875972 1.42775 0.994931 1.21142 1.21122C0.995099 1.42751 0.87612 1.71544 0.87612 2.02095V5.97769C0.87612 6.2832 0.995099 6.57114 1.21142 6.78743C1.42775 7.00372 1.71573 7.12268 2.02129 7.12268H5.97871C6.61011 7.12268 7.12388 6.60899 7.12388 5.97769V4.12977C7.12388 3.97432 7.20771 3.82832 7.34291 3.74992C7.40916 3.71206 7.48487 3.69179 7.56194 3.69179C7.63901 3.69179 7.71472 3.71206 7.78097 3.74992C7.91617 3.82832 8 3.97296 8 4.12977V5.97769C8 7.09294 7.09414 8 5.97871 8ZM7.35223 2.78066C7.41578 2.81715 7.48879 2.83608 7.56179 2.83608C7.6348 2.83608 7.70781 2.8158 7.77271 2.7793C7.90251 2.70496 7.98228 2.56572 7.98228 2.41702V0.438001C7.98228 0.206844 7.79434 0.0189453 7.56315 0.0189453H5.58378C5.35258 0.0189453 5.16465 0.206844 5.16465 0.438001C5.16465 0.669157 5.35258 0.857056 5.58378 0.857056H6.55077L3.70328 3.70405L3.70058 3.70676C3.62658 3.7861 3.58634 3.89111 3.58835 3.99958C3.59037 4.10806 3.6345 4.21149 3.7114 4.28803C3.79117 4.36779 3.89527 4.41105 4.00749 4.41105C4.1143 4.41105 4.2157 4.37049 4.29277 4.29885L4.29412 4.2975L7.14267 1.44944V2.41838C7.14267 2.56707 7.22379 2.70631 7.35223 2.78066Z" fill="currentColor"/>
</svg>
