<svg viewBox="0 0 17 17" fill="none" xmlns="http://www.w3.org/2000/svg">
<path d="M8.5 17C3.80587 17 0 13.1941 0 8.5C0 3.80587 3.80587 0 8.5 0C13.1941 0 17 3.80587 17 8.5C17 13.1941 13.1941 17 8.5 17ZM8.5 15.5833C12.4121 15.5833 15.5833 12.4121 15.5833 8.5C15.5833 4.58787 12.4121 1.41667 8.5 1.41667C4.58787 1.41667 1.41667 4.58787 1.41667 8.5C1.41667 12.4121 4.58787 15.5833 8.5 15.5833ZM7.79167 7.79167C7.79167 7.60381 7.86629 7.42364 7.99913 7.2908C8.13197 7.15796 8.31214 7.08333 8.5 7.08333C8.68786 7.08333 8.86803 7.15796 9.00087 7.2908C9.13371 7.42364 9.20833 7.60381 9.20833 7.79167V12.75C9.20833 12.9379 9.13371 13.118 9.00087 13.2509C8.86803 13.3837 8.68786 13.4583 8.5 13.4583C8.31214 13.4583 8.13197 13.3837 7.99913 13.2509C7.86629 13.118 7.79167 12.9379 7.79167 12.75V7.79167ZM8.42917 5.525C8.16616 5.525 7.91393 5.42052 7.72795 5.23455C7.54198 5.04857 7.4375 4.79634 7.4375 4.53333C7.4375 4.27033 7.54198 4.01809 7.72795 3.83212C7.91393 3.64615 8.16616 3.54167 8.42917 3.54167C8.69217 3.54167 8.94441 3.64615 9.13038 3.83212C9.31635 4.01809 9.42083 4.27033 9.42083 4.53333C9.42083 4.79634 9.31635 5.04857 9.13038 5.23455C8.94441 5.42052 8.69217 5.525 8.42917 5.525Z" fill="currentColor"/>
</svg>
