<svg viewBox="0 0 14 14" fill="none" xmlns="http://www.w3.org/2000/svg">
<g clip-path="url(#clip0_45_2737)">
<path d="M9.35203 5.516C9.19337 5.44134 9.12103 5.341 9.13503 5.215C9.14903 5.089 9.2027 4.98867 9.29603 4.914C9.32403 4.89534 9.41503 4.823 9.56903 4.697C9.72303 4.571 9.91203 4.41934 10.136 4.242C9.74403 3.794 9.27737 3.44167 8.73604 3.185C8.1947 2.92834 7.6067 2.8 6.97204 2.8C6.38404 2.8 5.83337 2.90967 5.32003 3.129C4.8067 3.34834 4.3587 3.64934 3.97604 4.032C3.59337 4.41467 3.29237 4.86267 3.07304 5.376C2.8537 5.88934 2.74404 6.44 2.74404 7.028C2.74404 7.60667 2.8537 8.15267 3.07304 8.66601C3.29237 9.17934 3.59337 9.62734 3.97604 10.01C4.3587 10.3927 4.8067 10.6937 5.32003 10.913C5.83337 11.1323 6.38404 11.242 6.97204 11.242C7.45737 11.242 7.91703 11.165 8.35103 11.011C8.78503 10.857 9.1817 10.64 9.54103 10.36C9.90037 10.08 10.2084 9.751 10.465 9.373C10.7217 8.995 10.9107 8.582 11.032 8.134C11.0974 7.91934 11.2187 7.742 11.396 7.602C11.5734 7.462 11.7834 7.392 12.026 7.392C12.3154 7.392 12.5604 7.49467 12.761 7.7C12.9617 7.90534 13.062 8.148 13.062 8.428C13.062 8.55867 13.0387 8.68467 12.992 8.806C12.796 9.45934 12.5067 10.0613 12.124 10.612C11.7414 11.1627 11.2864 11.6363 10.759 12.033C10.2317 12.4297 9.64604 12.74 9.00204 12.964C8.35804 13.188 7.68137 13.3 6.97204 13.3C6.10404 13.3 5.28737 13.1367 4.52204 12.81C3.7567 12.4833 3.0917 12.0353 2.52704 11.466C1.96237 10.8967 1.51437 10.2317 1.18304 9.47101C0.851702 8.71034 0.686035 7.896 0.686035 7.028C0.686035 6.16 0.851702 5.34334 1.18304 4.578C1.51437 3.81267 1.96237 3.14767 2.52704 2.583C3.0917 2.01834 3.7567 1.57034 4.52204 1.239C5.28737 0.907671 6.10404 0.742004 6.97204 0.742004C7.93337 0.742004 8.8247 0.940338 9.64604 1.337C10.4674 1.73367 11.1674 2.27267 11.746 2.954C11.9607 2.79534 12.1404 2.65767 12.285 2.541C12.4297 2.42434 12.5207 2.352 12.558 2.324C12.614 2.27734 12.6747 2.24234 12.74 2.219C12.8054 2.19567 12.866 2.19567 12.922 2.219C12.978 2.24234 13.027 2.29134 13.069 2.366C13.111 2.44067 13.1414 2.55267 13.16 2.702C13.1694 2.786 13.1787 2.92834 13.188 3.129C13.1974 3.32967 13.2067 3.563 13.216 3.829C13.2254 4.095 13.23 4.37034 13.23 4.655C13.23 4.93967 13.2254 5.208 13.216 5.46C13.2067 5.77734 13.132 6.006 12.992 6.146C12.9174 6.22067 12.8054 6.26267 12.656 6.272C12.5067 6.28134 12.348 6.26734 12.18 6.23C11.928 6.174 11.6504 6.11334 11.347 6.048C11.0437 5.98267 10.7544 5.915 10.479 5.845C10.2037 5.775 9.96103 5.70967 9.75103 5.649C9.54103 5.58834 9.40803 5.544 9.35203 5.516Z" fill="currentColor"/>
</g>
<defs>
<clipPath id="clip0_45_2737">
<rect width="14" height="14" fill="white"/>
</clipPath>
</defs>
</svg>
