<svg width="14" height="13" viewBox="0 0 14 13" fill="none" xmlns="http://www.w3.org/2000/svg">
<path d="M13.8703 5.22184C13.8672 5.19416 13.864 5.17108 13.8594 5.15724V5.14494L13.8531 5.1111C13.7422 4.57892 13.3846 4.23592 12.9395 4.23592H12.8661C12.107 4.23592 11.4917 3.62683 11.4917 2.88239C11.4917 2.71013 11.5729 2.46557 11.6073 2.37944C11.8228 1.88417 11.5932 1.31969 11.0606 1.03206L9.38482 0.0984381L9.35359 0.0876715C9.22864 0.047681 9.0834 0 8.92097 0C8.61798 0 8.27751 0.138429 8.06667 0.346072C7.80272 0.602934 7.26703 0.98592 6.94842 0.98592C6.63138 0.98592 6.09412 0.604472 5.83018 0.346072C5.60528 0.127662 5.29448 0 4.97588 0C4.80876 0 4.6682 0.0461429 4.54326 0.0876715L4.51515 0.0984381L2.75813 1.03514L2.7472 1.04129C2.32083 1.30431 2.14747 1.90724 2.36456 2.38559L2.36768 2.39174L2.3708 2.39789C2.40516 2.47326 2.51136 2.72859 2.51136 2.95161C2.51136 3.69912 1.89289 4.30514 1.13699 4.30514H1.06358C0.598167 4.30514 0.249887 4.64352 0.149932 5.18646L0.143685 5.21723V5.22799C0.143685 5.24337 0.137438 5.26491 0.132753 5.29259C0.0937077 5.52485 0 6.07241 0 6.52C0 6.96758 0.0921459 7.51514 0.132753 7.7474C0.135876 7.77508 0.139 7.79815 0.143685 7.812V7.8243L0.149932 7.85814C0.26082 8.39032 0.61847 8.73332 1.06358 8.73332H1.10107C1.8601 8.73332 2.47544 9.3424 2.47544 10.0868C2.47544 10.2591 2.39423 10.5037 2.35987 10.5898C2.15215 11.0558 2.34894 11.6542 2.80811 11.9556L2.8206 11.9618L4.4761 12.8693L4.50734 12.88C4.63228 12.92 4.77441 12.9677 4.93683 12.9677C5.28355 12.9677 5.59591 12.837 5.79113 12.6216C5.80987 12.6078 5.82862 12.5893 5.85048 12.5709C6.05039 12.3986 6.58765 11.9433 6.94217 11.9433C7.20612 11.9433 7.64811 12.2156 8.09322 12.6539C8.31812 12.8723 8.62891 13 8.94752 13C9.16305 13 9.32235 12.9416 9.50352 12.8539L9.50976 12.8508L11.2074 11.9264L11.2137 11.9203C11.6401 11.6572 11.8134 11.0543 11.5963 10.576L11.5932 10.5698L11.5901 10.5637C11.587 10.5621 11.4542 10.2899 11.4792 10.0453L11.4823 10.0299V10.0146C11.4823 9.26704 12.1008 8.66103 12.8567 8.66103H12.9348C13.4002 8.66103 13.7485 8.32265 13.8484 7.7797L13.8547 7.74893V7.73817C13.8578 7.72586 13.8609 7.70741 13.8656 7.6828C13.9062 7.4567 13.9999 6.92913 13.9999 6.44617C14.003 6.00012 13.9109 5.45409 13.8703 5.22184ZM6.9984 8.64257C5.79738 8.64257 4.82438 7.68434 4.82438 6.50154C4.82438 5.31874 5.79738 4.36051 6.9984 4.36051C8.19942 4.36051 9.17242 5.31874 9.17242 6.50154C9.17242 7.68434 8.19942 8.64257 6.9984 8.64257Z" fill="currentColor"/>
</svg>
