<svg viewBox="0 0 54 54" fill="none" xmlns="http://www.w3.org/2000/svg">
<path d="M52.0766 10.7869C53.0482 11.0472 53.6273 12.04 53.3741 13.0135C53.1219 13.9772 52.1361 14.5547 51.1725 14.3025L47.6172 13.3499L46.3268 18.1659C44.8261 23.7666 40.0219 27.6148 34.2721 28.6547C38.7381 32.4057 40.9681 38.165 39.4673 43.7657L38.1769 48.5817L41.6972 49.5249C42.6655 49.7844 43.2401 50.7795 42.9806 51.7478C42.7212 52.7161 41.726 53.2906 40.7578 53.0311L2.02593 42.653L1.71657 42.5398C0.800668 42.1376 0.383843 41.069 0.785965 40.1531C1.15472 39.3127 2.09436 38.881 2.97262 39.1482L6.52126 40.0991L7.81144 35.2841C9.31216 29.6833 14.1131 25.8342 19.8661 24.7952C15.3968 21.0433 13.1702 15.285 14.6709 9.68419L15.9615 4.86777L12.4128 3.91691C11.4445 3.65746 10.87 2.66235 11.1295 1.69407C11.3889 0.725784 12.384 0.15126 13.3523 0.410711L52.0766 10.7869ZM44.0959 12.4064L19.471 5.80813L18.1871 10.5996C17.0693 14.7712 18.671 19.3132 22.2022 22.3269C23.2549 23.2995 23.6544 24.6102 23.3544 25.7298C23.0485 27.0128 21.9665 27.9628 20.6551 28.1008C16.1146 28.9517 12.432 32.0777 11.3175 36.2503L10.0214 41.0875L11.982 41.6128L12.5291 39.5711C13.5385 35.8041 16.032 32.0465 21.0065 30.6891L21.8135 30.4939C23.6047 30.2307 25.3145 29.1152 26.9388 27.1508C27.1931 29.4411 28.1726 31.2773 29.8857 32.6568C34.4351 36.8002 34.1706 41.1247 33.1094 45.085L32.5623 47.1268L34.6428 47.6842L35.9323 42.8716C37.0501 38.6999 35.4522 34.1589 31.9215 31.1413C30.8693 30.1689 30.4684 28.8614 30.7693 27.7384C31.1136 26.4537 32.114 25.5216 33.4676 25.3712C38.0072 24.5236 41.6865 21.3967 42.8052 17.2217L44.0959 12.4064ZM40.7578 15.6187C40.1797 19.9296 35.6431 22.9024 32.7256 23.2864C30.9809 23.517 29.1741 24.3457 27.3087 25.7743C26.4809 23.6245 25.3731 22.0144 23.9948 20.9475C21.5041 19.0199 20.6551 17.2217 20.3797 15.1187L40.7578 15.6187Z" fill="currentColor"/>
</svg>
