<svg viewBox="0 0 14 14" fill="none" xmlns="http://www.w3.org/2000/svg">
<g clip-path="url(#clip0_74_12551)">
<path d="M7 0C3.13425 0 0 3.13425 0 7C0 10.8658 3.13425 14 7 14C10.8658 14 14 10.8658 14 7C14 3.13425 10.8658 0 7 0ZM7 1.16667C10.2218 1.16667 12.8333 3.77825 12.8333 7C12.8333 10.2218 10.2218 12.8333 7 12.8333C3.77825 12.8333 1.16667 10.2218 1.16667 7C1.16667 3.77825 3.77825 1.16667 7 1.16667ZM6.41667 7.58333C6.41667 7.73804 6.47812 7.88642 6.58752 7.99581C6.69692 8.10521 6.84529 8.16667 7 8.16667C7.15471 8.16667 7.30308 8.10521 7.41248 7.99581C7.52187 7.88642 7.58333 7.73804 7.58333 7.58333V3.5C7.58333 3.34529 7.52187 3.19692 7.41248 3.08752C7.30308 2.97813 7.15471 2.91667 7 2.91667C6.84529 2.91667 6.69692 2.97813 6.58752 3.08752C6.47812 3.19692 6.41667 3.34529 6.41667 3.5V7.58333ZM6.94167 9.45C6.72507 9.45 6.51735 9.53604 6.3642 9.6892C6.21104 9.84235 6.125 10.0501 6.125 10.2667C6.125 10.4833 6.21104 10.691 6.3642 10.8441C6.51735 10.9973 6.72507 11.0833 6.94167 11.0833C7.15826 11.0833 7.36598 10.9973 7.51914 10.8441C7.67229 10.691 7.75833 10.4833 7.75833 10.2667C7.75833 10.0501 7.67229 9.84235 7.51914 9.6892C7.36598 9.53604 7.15826 9.45 6.94167 9.45Z" fill="currentColor" />
</g>
<defs>
<clipPath id="clip0_74_12551">
<rect width="14" height="14" fill="white" transform="matrix(1 0 0 -1 0 14)"/>
</clipPath>
</defs>
</svg>
